<svg id="Layer_1" xmlns="http://www.w3.org/2000/svg" xmlns:xlink="http://www.w3.org/1999/xlink" viewBox="0 0 210.1 199.9"><style>.st0{clip-path:url(#SVGID_2_);} .st1{clip-path:url(#SVGID_4_);enable-background:new ;} .st2{clip-path:url(#SVGID_6_);} .st3{clip-path:url(#SVGID_8_);} .st4{clip-path:url(#SVGID_10_);fill:#1D1D1B;} .st5{clip-path:url(#SVGID_12_);} .st6{clip-path:url(#SVGID_14_);fill:#1D1D1B;} .st7{clip-path:url(#SVGID_16_);} .st8{clip-path:url(#SVGID_18_);fill:#1D1D1B;} .st9{clip-path:url(#SVGID_20_);} .st10{clip-path:url(#SVGID_22_);enable-background:new ;} .st11{clip-path:url(#SVGID_24_);} .st12{clip-path:url(#SVGID_26_);} .st13{clip-path:url(#SVGID_28_);fill:#1D1D1B;} .st14{clip-path:url(#SVGID_30_);} .st15{clip-path:url(#SVGID_32_);fill:#1D1D1B;}</style><defs><path id="SVGID_1_" d="M119.7 0h90.4v169.9h-90.4z"/></defs><clipPath id="SVGID_2_"><use xlink:href="#SVGID_1_" overflow="visible"/></clipPath><g class="st0"><defs><path id="SVGID_3_" d="M-851.9-2620.1h1440v4613h-1440z"/></defs><clipPath id="SVGID_4_"><use xlink:href="#SVGID_3_" overflow="visible"/></clipPath><g class="st1"><defs><path id="SVGID_5_" d="M119.1-.1h92v171h-92z"/></defs><clipPath id="SVGID_6_"><use xlink:href="#SVGID_5_" overflow="visible"/></clipPath><g class="st2"><defs><path id="SVGID_7_" d="M180.2.3h-4.1c-1.2 0-2.3 0-3.5-.2-.5-.1-1-.1-1.4-.1-1.8 0-3.6 0-5.4.1-2.1.1-4.3.1-6.4.3-2 .2-3.9.2-5.9.2-1.3 0-2.7 0-4 .3h-.5c-2 0-3.9.3-5.9.4-1.4.1-2.7.4-4.1.8-1 .3-2.1.5-3.1.8-1.5.4-3 .8-4.4 1.3-.2.1-.4.1-.6.2-1.2.5-1.9 1.4-1.9 2.8v2.1c0 1 0 2 .2 3 0 .2 0 .3.1.5 0 .6-.1.8-.7.8-.2 0-.4 0-.6.1-.3.1-.6.6-.4.9 0 0 0 .1.1.1.7.7.8 1.6.7 2.5v1.3c0 .6.2 1.1.7 1.6.1.1.2.2.4.3.3.2.4.5.4.8 0 .2-.1.4-.1.6 0 1.1.4 2 1.4 2.5.5.3 1.1.5 1.6.7.3.1.4.3.4.6.1.7 0 1.5-.1 2.2-.2 1.3-.3 2.5-.5 3.8-.3 2.2-.3 4.3-.3 6.5 0 1.2-.2 2.4-.4 3.6-.1.8-.2 1.7-.2 2.5 0 1 0 2-.1 3 0 1.2-.3 2.4-.4 3.6-.2 1.6-.4 3.3-.6 4.9-.1 1.7-.2 3.5-.5 5.2-.2 1.5-.4 3.1-.4 4.6 0 .9-.1 1.8-.2 2.7-.1 1.7-.4 3.5-.6 5.2v.5c-.1 1.9-.3 3.8-.4 5.7-.1 1.2-.3 2.3-.4 3.5 0 .4-.1.7-.1 1.1 0 2.2-.3 4.4-.5 6.7 0 .4-.1.8-.1 1.3-.1.6-.1 1.3-.2 1.9-.1.8-.1 1.7-.2 2.5-.1.9-.1 1.8-.1 2.7 0 .7 0 1.5-.2 2.2v.3c-.1 1.9-.3 3.8-.4 5.7 0 1.9-.3 3.7-.5 5.6-.2 1.9-.6 3.9-.7 5.8-.1 1.6-.4 3.2-.7 4.7-.2 1.3-.3 2.5-.4 3.8-.2 1.5-.3 3.1-.6 4.6-.3 1.5-.5 2.9-.6 4.4-.2 1.2-.2 2.4-.4 3.6l-.3 2.7c-.3 2.2-.5 4.4-.6 6.7 0 .4-.1.7-.2 1.1-.5 2.7-.8 5.5-1.1 8.2-.1.5-.2 1-.3 1.6-.1.7-.2 1.5 0 2.2.1.5.6 1 1.1 1h.6c.6-.2 1.1-.5 1.7-.5 1.4-.1 2.7-.5 4.1-.3h1.1c.4 0 .8-.4.9-.8 0-.2.1-.4.1-.6.1-1.1.3-2.1.4-3.2 0-.2 0-.3.1-.5.5-1.7.6-3.4 1-5.2.1-.3.1-.5.1-.8.1-2.4.4-4.8.7-7.1.1-.6.2-1.3.3-1.9l.6-5.1.3-3c.1-2.3.5-4.5.8-6.8.2-1.2.3-2.4.5-3.6.3-2 .5-4 .9-6 .2-.9.3-1.9.4-2.8.3-2 .2-4 .3-6v-1.1-.8c.3-2.2.2-4.5.3-6.7v-.5c0-.3.3-.6.7-.6.7-.1 1.5 0 2.2.1 1.2.3 2.5.5 3.7.8l1.2.3c.3.1.4.3.5.5.2.5.3 1 .2 1.6-.3 1.9-.2 3.8 0 5.7 0 .5.1 1.1 0 1.6-.1.7-.1 1.4-.1 2.1 0 1.1-.1 2.2-.1 3.3v1.8c0 .8 0 1.6-.2 2.4-.4 1.5-.4 2.9-.4 4.4 0 2.1 0 4.1-.1 6.2 0 .4-.1.8-.1 1.3 0 .6-.1 1.2-.1 1.7 0 .8-.1 1.6-.3 2.4-.1.3-.1.5-.1.8 0 1.4-.3 2.7-.5 4.1-.1.5-.1 1.1-.1 1.6.1.4.3.8.6 1 .6.4 1.3.7 2.1.8 1.1.1 2.1.3 3.2.4h.5c.5 0 .9-.4 1-.9v-1.1c0-.9.1-1.8.3-2.7.4-1.9.7-3.8 1.1-5.6.1-.7.2-1.4.2-2.1 0-2.6.2-5.2.5-7.8 0-.2 0-.3.1-.5l.3-5.7c0-.9.1-1.8.2-2.7.1-1.2.2-2.4.2-3.7 0-1.4 0-2.9.2-4.3.1-.4.1-.7.1-1.1 0-1.2.3-2.4.4-3.6.1-.5.4-.7.9-.7.3 0 .5 0 .8.1 1.2.2 2.4.2 3.7.2h4.5c.5 0 1.1.1 1.6.1 1.5.2 3.1.2 4.6 0 .4-.1.8-.1 1.3-.1h8.6c.3 0 .6.3.7.6 0 .4.1.7.1 1.1 0 1.4.1 2.9.2 4.3.1 1 .1 2.1.1 3.2v1.3c.3 1.6.2 3.3.4 4.9 0 .2.1.4 0 .6-.2 2 .2 3.9.1 5.9 0 .4 0 .7.1 1.1.2 1.2.2 2.4.3 3.7 0 .9.2 1.8.2 2.7.1 1.5.3 3.1.4 4.6.1 1.4.3 2.7.4 4.1.1.7.1 1.4.2 2.1.1 1.4.1 2.9.3 4.3.1 1 .1 2 .1 3v2.4c0 .5 0 1.1.1 1.6.3 1.5.2 3 .3 4.4 0 1.1.1 2.2.3 3.3.1.5.1 1 .1 1.4 0 .4 0 .8.1 1.1.2.8.2 1.7.1 2.5-.1.5 0 .9.2 1.4.2.4.5.7.9.8.5.2 1.1.4 1.7.4.7 0 1.4.1 2.1.2 1 .1 2-.2 2.9-.6.3-.1.5-.4.5-.8v-.5c-.1-1.1-.1-2.2.1-3.3.1-.8.1-1.6.1-2.4 0-.9.1-1.8.1-2.7 0-.2.1-.4 0-.6-.2-1.8-.1-3.6-.4-5.4-.1-.8-.1-1.6-.1-2.4 0-1 0-1.9-.2-2.9-.1-.3-.1-.6-.1-1 0-2.5-.5-5-.8-7.4-.2-1.6-.5-3.3-.5-4.9 0-.4-.1-.8-.1-1.3-.2-1.4-.4-2.8-.5-4.3-.2-2.3-.4-4.6-.3-6.8 0-1.8 0-3.5.1-5.3.1-1.4 0-2.9-.1-4.3-.1-.8-.1-1.6-.2-2.4-.1-.7-.1-1.5-.1-2.2 0-1.1 0-2.1-.2-3.2-.1-.8-.1-1.7 0-2.5 0-.2.3-.5.5-.6.3-.1.6-.1.9-.2.9-.2 1.9-.4 2.7-.8.6-.3 1.2-.5 1.8-.8.8-.3.9-.3 1.1.5.2.7.3 1.4.4 2 .1.6.2 1.3.4 1.9.2.6.3 1.2.4 1.9.1 1.1.3 2.2.6 3.3.2.8.3 1.7.3 2.5v.8c.3 1.6.3 3.2.5 4.8.2 1.3.2 2.6.4 4 .3 2.6.6 5.3.9 7.9.2 1.7.6 3.5.9 5.2.3 1.7.7 3.3.8 5 0 .6.2 1.3.3 1.9.1.7.2 1.5.2 2.2 0 1.2.1 2.3.3 3.5.1.4.2.7.4 1 .2.5.6.7 1.2.7 1-.1 2-.3 3-.4.5-.1 1.1-.1 1.6-.2.3 0 .5-.1.8-.2.3-.1.6-.5.6-.9 0-.2-.1-.4-.1-.6-.2-.5-.4-1-.5-1.5-.2-.7-.4-1.4-.5-2.2-.2-1.3-.4-2.5-.4-3.8v-.8c-.3-1.3-.2-2.5-.3-3.8 0-.6 0-1.3-.1-1.9-.2-1.2-.2-2.3-.2-3.5 0-.7 0-1.5-.2-2.2-.1-.3-.1-.5-.1-.8 0-1.2-.3-2.4-.4-3.6l-.3-2.7c-.3-2.5-.4-5-.8-7.4-.1-.5-.1-.9-.1-1.4 0-1.1-.2-2.1-.2-3.2-.1-2.3-.5-4.5-.5-6.8 0-.7-.1-1.4-.1-2.1 0-.6-.1-1.3-.1-1.9 0-1.8-.1-3.6 0-5.4 0-1.4-.2-2.9-.4-4.3-.1-.7-.2-1.5-.2-2.2-.1-1.5-.3-3.1-.5-4.6 0-.2-.1-.3-.1-.5-.1-1.9-.3-3.7-.4-5.6-.2-2.2-.3-4.4-.5-6.7-.3-3.2-.9-6.3-1.5-9.4-.3-1.5-.5-3-.6-4.6-.1-1.5-.3-3-.4-4.4-.1-.5-.1-1.1-.1-1.6 0-2.7-.1-5.3-.1-8 0-1 0-1.9-.2-2.9-.1-.8-.1-1.6-.1-2.4 0-1.5-.2-3-.5-4.4-.4-1.8-.5-3.7-.5-5.5 0-.5.2-.8.6-1 .5-.3 1-.5 1.6-.8.6-.3.9-.8.9-1.4 0-.8.1-1.7 0-2.5-.1-.5.1-.8.5-1.1.2-.1.3-.3.5-.4.8-.5 1.1-1.3 1.2-2.2 0-.2 0-.5-.1-.8l-.6-1.5c-.1-.4-.2-.7-.1-1.1.7-2.4.4-4.7.1-7.1-.1-.6-.4-1.1-.9-1.4-.4-.2-.7-.5-1.1-.7-.8-.5-1.7-.9-2.6-1.1-.3 0-.5-.1-.8-.2-2.2-.4-4.5-.8-6.7-1.2h-.2c-2 0-3.9-.4-5.9-.3H183c-1.1.8-1.9.8-2.8.7zM132 16.9l.1.1-.1-.1zm70.4-1.6l-.3-.9v-.1.2c.2.2.3.5.3.8zM130 16.9c.3.4.6.8.9 1.1.4.5 1 .8 1.6.9 1.2.2 2.2-.8 1.9-2-.1-.3-.2-.5-.3-.7-.1-.1.1-.3.3-.3h.8c.5 0 .6.1.6.5-.1.9.2 1.7.7 2.4.1.1.1.2.2.3.1.1 0 .4-.2.4s-.4.1-.6.1h-2.5c-.7-.1-1.5-.1-2.2-.4-.6-.3-1.1-.7-1.1-1.4 0-.4 0-.6-.1-.9zm32.3-.3c-.2.1-.3.3-.5.4-.4.5-.5 1.1-.2 1.6.2.3.4.6.7.9.2.3.5.5.7.8l-.1.2c-.3 0-.6.1-.9 0-1.1-.2-2.3-.2-3.5-.3-.5 0-.6-.1-.3-.7.2-.4.3-.9.2-1.4-.1-.4 0-.7.1-1.1.1-.4.4-.6.8-.6 1 .1 2 .2 3 .2zm-7.6 60.5v-.6c0-1.4 0-2.9.2-4.3.2-1.7.4-3.4.4-5.1 0-1 0-1.9.1-2.9.2-1.3.2-2.5.2-3.8 0-.8.1-1.7.2-2.5 0-.5.1-1 .1-1.4.1-1.9.3-3.8.4-5.7v-.3c.2-2 .5-3.9.5-5.9 0-.7.1-1.5.2-2.2.3-1.7.5-3.4.7-5 .1-.6 0-1.2.2-1.7.3-1.4.3-2.7.3-4.1 0-1.3.3-2.6.4-4 0-.1 0-.1.1-.1.1-.2.2-.4.5-.4.3-.1.5-.1.8-.1h1.9c3.8 0 7.6.1 11.5-.1h1.3c.1 0 .2 0 .3.1.1.1.3.2.3.3.1.2.1.5.1.8v2.2c0 1.3.2 2.6.3 4 .1 1.6.4 3.3.4 4.9.4 2.1.6 4.3.7 6.5.1 1.4.2 2.9.2 4.3 0 .4 0 .9.1 1.3.3 1.3.3 2.6.3 4 0 .4 0 .9.1 1.3.2 1.1.2 2.2.2 3.3 0 .6.1 1.2.1 1.7.1.7.1 1.5.2 2.2 0 .5 0 1.1.1 1.6.2 1.3.2 2.5.2 3.8 0 .8 0 1.6.2 2.4.1.6.2 1.2.2 1.7 0 1 .1 2 .4 3 .3 1.4.3 2.7.5 4.1 0 .2-.2.5-.5.5-1.3-.1-2.5-.2-3.8-.3-.4 0-.9-.1-1.3 0-1.5.1-3.1.2-4.6.4-.6.1-1.2.1-1.7.1H161c-1.4.1-2.7.3-4.1.5-.3 0-.6.1-.9.1-.5 0-.9-.4-1-.9 0-.5-.1-1-.1-1.4-.3-.9-.2-1.6-.2-2.3zm-17.6-51.9h.5c1.4 0 2.8.4 4.2.7.5.1.8.5.8 1 0 .4 0 .7-.1 1.1-.4 1.8-.8 3.6-1 5.5-.2 1.8-.7 3.5-.9 5.3-.2 1.6-.4 3.3-.8 4.9-.3 1.2-.4 2.4-.4 3.6 0 .5-.1 1.1-.2 1.6-.2 1.5-.5 2.9-.5 4.4v.5c-.3 1.7-.3 3.5-.5 5.2-.2 1.7-.3 3.5-.5 5.2-.2 1.4-.2 2.7-.3 4.1 0 .4-.1.8-.1 1.3 0 .6-.1 1.3-.1 1.9 0 .4 0 .9-.1 1.3-.2 1.2-.2 2.3-.2 3.5 0 .9 0 1.8-.1 2.7-.2 1.7-.5 3.4-.6 5.1 0 .2 0 .4-.1.6-.2 1.1-.3 2.3-.6 3.5-.2.7-.2 1.4-.2 2.1 0 .7-.1 1.5-.2 2.2-.1.3-.1.5-.1.8-.2 2-.3 4-.6 6v.8c0 1.5 0 3-.1 4.5 0 .6 0 1.2-.1 1.7-.1.8-.2 1.6-.2 2.4 0 1.4 0 2.9-.1 4.3-.1 1.2-.2 2.3-.2 3.5 0 1-.2 2-.4 3-.3 1.1-.5 2.2-.5 3.3 0 .3 0 .5-.1.8-.3 1.4-.4 2.7-.5 4.1-.1.6-.1 1.2-.3 1.7-.3 1.4-.5 2.8-.7 4.2-.3 2.1-.4 4.2-.6 6.3-.2 2-.4 3.9-.7 5.8-.4 2.5-.6 5.1-1 7.6-.1 1.1-.3 2.1-.5 3.1-.2.8-.4 1.7-.4 2.5 0 .6-.2 1.2-.4 1.7-.1.2-.3.3-.5.4-.1.1-.3.1-.5.1-1.3 0-2.7.1-4 .3-.6.1-.9-.2-1-.8v-.8c.1-.9.1-1.8.2-2.7 0-1.1.1-2.2.3-3.3.2-1.1.3-2.3.5-3.5.2-1.7.2-3.5.5-5.2v-.8c0-.2 0-.4.1-.6.4-1.7.6-3.3.7-5 0-.2 0-.3.1-.5.3-2.1.6-4.2.8-6.3.1-.6.2-1.2.2-1.7.1-1.5.3-3 .5-4.4.3-1.9.7-3.9.8-5.8 0-.2.1-.4.1-.6.2-1.5.5-3 .5-4.6 0-.3 0-.5.1-.8.4-2.1.5-4.2.5-6.3 0-.8 0-1.6.1-2.4.1-1.3.3-2.5.5-3.8 0-.3.1-.5.1-.8 0-1.5.1-3 .3-4.5.2-1.6.1-3.2.3-4.8.2-1.6.3-3.3.4-4.9.1-.8.2-1.6.2-2.4.1-2.1.5-4.1.5-6.2v-.3c.1-1.1.3-2.2.4-3.3.1-1 .3-2 .3-3 .1-1.7.4-3.5.4-5.2 0-.4.1-.8.1-1.3.1-.6.1-1.2.2-1.7.1-.6.1-1.3.2-1.9.2-1.3.3-2.5.4-3.8.1-1.9.3-3.7.6-5.5.2-1.7.5-3.5.4-5.2 0-.7 0-1.4.1-2.1.1-.9.1-1.8.2-2.7 0-.4.1-.8.1-1.3.1-.7.1-1.5.2-2.2 0-.4 0-.9.1-1.3.2-1.2.2-2.4.2-3.7 0-.5 0-1 .1-1.4.3-2 .6-4.1.9-6.1 0-.1.1-.2.1-.3 0-.2.3-.4.5-.4.6-.1 1.2 0 1.7 0zm43.7 1c.7 0 1.4-.1 2.1-.1.2 0 .5.2.6.4.3 1.2.5 2.4.5 3.6 0 1.8-.3 3.5-.5 5.2-.1.9-.1 1.7 0 2.5s.2 1.7.2 2.5c0 1.2 0 2.4.1 3.7 0 .7 0 1.5.2 2.2.1.8.3 1.7.3 2.5.1 1.8.2 3.5.4 5.2.1.5.1 1 .1 1.4.2 2.1.3 4.2.5 6.3v.6c0 .9 0 1.8-.1 2.7-.1 1.3-.2 2.5 0 3.8-.1 1.5.1 3.1.1 4.6 0 .6 0 1.2-.1 1.7-.2.8-.2 1.6 0 2.4.1.6.1 1.2.1 1.7v2.5c0 .4.1.9.4 1.2.6.6.7 1.3.9 2 .1.6.2 1.2.2 1.7.1.9.2 1.9.2 2.9v3c.1 1.2.3 2.4.4 3.6.1.9.1 1.9.1 2.9 0 .4-.2.7-.5.9-.2.1-.4.2-.5.3-.2.1-.3.5-.1.7.1.1.1.3.3.4.2.1.3.3.5.4.5.2.7.6.7 1.1 0 .4 0 .8.1 1.3 0 .6.1 1.2.1 1.7.1.7.1 1.4.2 2.1.1.8.1 1.7.1 2.5.1 1 .2 1.9.2 2.9v7.8c0 1.9 0 3.7.1 5.6 0 .4 0 .8.1 1.3.2 1.7.3 3.4.5 5.1.2 1.4.3 2.8.4 4.3 0 .3.1.5.1.8.3 2.4.5 4.7.8 7.1 0 .4 0 .7.1 1.1 0 .3 0 .6.1 1 .2 1.4.3 2.9.3 4.3 0 .7.1 1.4.2 2.1.2 1.8.3 3.7.4 5.6v1c0 .4-.1.8-.1 1.3.1 1.8-.4 3.5-.5 5.2 0 .5-.4.9-.9.9-1 .1-1.9 0-2.9-.1-.1 0-.2-.1-.3-.1-.2-.1-.3-.3-.3-.5 0-1.2-.2-2.4-.3-3.6-.2-1.9-.6-3.8-.5-5.7 0-.3 0-.5-.1-.8-.1-.8-.2-1.7-.2-2.5-.1-2.3 0-4.7-.3-7v-.3c0-2.2-.3-4.5-.4-6.7 0-.3-.1-.6-.1-.9-.1-.5-.1-.9-.2-1.4-.1-1.7-.4-3.5-.4-5.2 0-1.2-.2-2.3-.3-3.5-.1-1-.2-2-.2-3 0-.5 0-1-.1-1.4-.2-1.2-.2-2.3-.2-3.5v-3.3c0-.9 0-1.8-.1-2.7-.1-1.2-.2-2.3-.2-3.5 0-.6 0-1.2-.1-1.7-.3-1.8-.3-3.6-.3-5.4 0-.4 0-.8-.1-1.3s-.1-1.1.1-1.6c.1-.3.1-.6 0-.9-.3-.6-.3-1.2-.3-1.9v-.8c0-1.3.1-2.7-.2-4-.1-.4-.1-.8-.1-1.3.1-2.4 0-4.8-.1-7.2 0-1.5-.2-3.1-.4-4.6-.2-1.5-.3-3-.5-4.4-.2-1.3-.2-2.5-.4-3.8-.2-1.4-.3-2.7-.3-4.1 0-.3 0-.6-.1-1-.1-.8-.1-1.7-.2-2.5 0-.5 0-1-.1-1.4-.2-1.2-.2-2.3-.3-3.5 0-.5 0-1.1-.1-1.6-.2-1.5-.2-3-.2-4.5 0-.6 0-1.3-.1-1.9-.3-2.4-.5-4.9-.5-7.3 0-.8 0-1.6-.2-2.4-.2-1.1-.3-2.2-.4-3.3-.2-1.6-.3-3.2-.5-4.8-.1-1.2-.2-2.4-.3-3.7 0-.4-.1-.7-.1-1.1-.1-1-.1-1.9 0-2.9 0-.3.3-.6.6-.7.3-.1.6-.2.9-.2.3.1 1.1 0 2 0zm-31.6 0c2.2 0 4.4.2 6.5.3.1 0 .2 0 .3.1.3.1.6.3.6.6 0 .4.1.8.1 1.3v3.7c0 .8 0 1.6-.1 2.4-.1 1.1-.2 2.2-.4 3.3-.1 1.1-.2 2.1-.4 3.2-.3 1.3-.5 2.5-.4 3.8.1 1.9-.2 3.7-.4 5.6-.1 1-.3 2-.3 3-.1 1.5-.2 3-.3 4.4-.1 1.3-.2 2.6-.2 4 0 .8 0 1.6-.1 2.4-.2 1.3-.2 2.5-.2 3.8 0 .7 0 1.4-.1 2.1-.3 2.1-.5 4.2-.5 6.3 0 .4 0 .7-.1 1.1-.2 1-.3 2-.3 3 0 .2 0 .3-.1.5-.1.4-.5.8-.9.8-.9.1-1.8.2-2.7.4-.6.1-1.3 0-1.9 0-.3 0-.5-.3-.5-.5 0-1.2-.1-2.4.1-3.7.1-.6.1-1.3.1-1.9 0-.5 0-1 .1-1.4.1-.9.2-1.8.2-2.7-.1-2.2.3-4.4.4-6.7 0-.1 0-.2.1-.3.2-.6.2-1.3.2-1.9v-5.1c0-.5 0-1.1.1-1.6.2-1.2.2-2.4.2-3.7 0-.7.1-1.5.1-2.2 0-.8.1-1.7.2-2.5v-2.9c0-1.2.1-2.3.1-3.5 0-.8.1-1.7.2-2.5 0-.8 0-1.7.1-2.5.1-1.1.2-2.2.2-3.3 0-1.2.1-2.3.3-3.5.1-.7.1-1.4.1-2.1 0-.2-.1-.4-.1-.6-.1-.3-.4-.5-.7-.5-.2 0-.5.3-.5.5v.6c0 1.3 0 2.5-.2 3.8-.1.5-.1 1-.1 1.4v2.7c0 .9-.1 1.8-.1 2.7-.1 1-.1 2-.2 3 0 .7 0 1.5-.1 2.2-.1 1.1-.2 2.2-.2 3.3 0 1.5 0 3.1-.1 4.6 0 .5-.1 1.1-.1 1.6-.1 1-.1 2-.2 3 0 .8-.1 1.7-.1 2.5 0 1-.1 2-.2 3-.1 1.7 0 3.4-.4 5.1-.1.6-.2 1.2-.2 1.7-.1 2-.3 4-.4 6 0 .4 0 .9-.1 1.3-.2 1.3-.3 2.5-.2 3.8 0 .9-.2 1.7-.4 2.5-.1.3-.3.5-.5.6-1.3.4-2.6 1-3.9 1.3-.5.1-.9.3-1.4.4-.2.1-.4.1-.6.1-.2 0-.5-.2-.5-.5.1-1 .1-1.9.3-2.9.2-1.8.4-3.6.5-5.4 0-1.5 0-3.1.3-4.6v-.5c0-1.4.1-2.9.3-4.3.2-1.7.3-3.5.5-5.2.1-1.1.2-2.2.2-3.3 0-.7.1-1.5.1-2.2.1-.7.2-1.5.3-2.2.1-1.1.2-2.1.3-3.2.1-1.2.3-2.3.4-3.5.1-.5 0-1.1.1-1.6.2-1.8.4-3.6.8-5.4.2-.9.3-1.9.4-2.8.1-.9.2-1.8.4-2.7.2-.9.4-1.9.5-2.8 0-.4.2-.8.2-1.2.2-.7.3-1.5.5-2.2l.3-1.2c.1-.5.5-.8 1-.8h.3c1 .3 2.2.3 3.4.3zm30.9-24.6c1.8 0 3.6.2 5.4.1.3 0 .5 0 .8.1.8.2 1.7.2 2.5.2.9 0 1.8.1 2.7.3 1.7.3 3.4.5 5 .8.8.1 1.6.3 2.3.5.5.1 1 .3 1.4.7v.3c-.1.1-.2.1-.3.2-1.2.2-2.4.6-3.5 1-.4.2-.9.3-1.4.4-.9.2-1.7.5-2.6.7-1 .3-2 .5-3 .5-.8 0-1.6.1-2.4.3-.8.2-1.7.3-2.5.3-1 0-2 .1-3 .4-.7.2-1.5.3-2.2.3-1.5 0-3 .2-4.4.4-1.4.3-2.9.2-4.3.4h-.6c-1.2-.1-2.3-.1-3.5.1-1.6.2-3.3.2-4.9-.1-.6-.1-1.3-.1-1.9-.1-2.3 0-4.7 0-7 .1-.5 0-1 0-1.4.1-1 .1-1.9.1-2.9.1h-1.3c-1.3 0-2.5.1-3.8.1-1 0-2-.1-3-.2-.9-.2-1.8-.3-2.7-.4-1.9-.2-3.7-.9-5.5-1.6-.3-.1-.5-.4-.6-.7-.1-.3 0-.6.3-.8.5-.4 1.1-.5 1.6-.7 1-.3 1.9-.6 2.9-.9l.9-.3c1.2-.3 2.4-.6 3.5-.9 1-.2 2.1-.4 3.1-.6 1.2-.1 2.3-.2 3.5-.3 2-.1 4-.2 6-.4 1.1-.1 2.1 0 3.2 0 1.3 0 2.5 0 3.8-.2.5-.1 1.1-.1 1.6-.1 2.6 0 5.2-.1 7.8-.1 1.2 0 2.4.1 3.7.2.8.1 1.7.2 2.5.1 1.5-.3 2.8-.3 4.2-.3zm22.6 81.6c0 .3 0 .5-.1.7 0 .1-.2.2-.3.3-.1 0-.2 0-.3-.1-1.6-.7-3.2-1.2-4.8-1.6-.2-.1-.4-.1-.6-.2-.4-.1-.7-.4-.8-.9-.3-1.8-.6-3.6-.8-5.3v-.5c0-1.2-.2-2.4-.3-3.6-.2-1.2-.3-2.3-.4-3.5-.2-1.5-.4-3.1-.5-4.6-.1-1.1-.3-2.2-.4-3.3 0-1.4-.2-2.9-.5-4.3-.3-1.7-.5-3.3-.5-5.1 0-1.5-.3-3.1-.4-4.6-.1-.8-.2-1.6-.2-2.4-.1-1.3-.2-2.6-.3-4-.2-1.5-.4-2.9-.6-4.4-.1-.5-.2-1-.3-1.6-.3-2.5-.6-5.1-.9-7.6v-.3c0-.4.2-.8.5-.9l1.2-.3c1.5-.3 3.1-.3 4.6-.6.3-.1.5 0 .8 0 .2 0 .4.2.5.4.1.1.1.3.1.5.2 1.2.3 2.4.5 3.6.4 2.5.8 5 .8 7.6 0 .3 0 .5.1.8.1 1.1.2 2.2.2 3.3v5.6c0 1.3 0 2.7.1 4 .1 1.7.3 3.5.5 5.2 0 .3.1.6.1.9.2 1.3.5 2.6.7 3.9.5 2.7 1 5.3 1.1 8 0 .2 0 .4.1.6.2.9.2 1.8.2 2.7 0 1.3 0 2.7.2 4 .1.4.1.7.1 1.1 0 1.7.3 3.3.5 4.9 0 .7.1 1.2.1 1.6zm-68-68.9H132c-.2 0-.4-.2-.5-.4-.5-1.2-.8-2.4-.9-3.7 0-.4.1-.7.2-1.1 0-.2.3-.4.5-.4h.5c.5.2 1.1.4 1.6.6.6.3 1.2.5 1.8.5.8.1 1.6.3 2.3.4 1.3.3 2.7.5 4.1.6 1.3 0 2.6.3 4 .1h.2c.9.1 1.8.1 2.7-.1.3-.1.6-.1 1-.1 3-.1 6.1-.1 9.1-.2h.5c.6.1 1.3 0 1.9-.1.7-.1 1.4-.1 2.1 0 .9.2 1.8.2 2.7.2h6.4c.7 0 1.5-.1 2.2-.2 1.6-.3 3.1-.5 4.7-.5.5 0 1-.1 1.4-.1 1.6-.2 3.2-.4 4.7-.6 1.3-.1 2.6-.3 3.9-.5 2.8-.4 5.5-1.1 8.2-2 1.3-.4 2.5-.8 3.9-.9h.6c.1 0 .3.2.4.3.1.2.2.4.2.6.1 1.1.1 2.2 0 3.3 0 .3-.1.6-.3.9-.1.4-.4.6-.8.7-.7.2-1.3.4-2 .7-.6.2-1.2.4-1.9.4-1.1.1-2.1.3-3.1.6-.7.2-1.3.3-2 .3s-1.4.1-2.1.2c-.8.1-1.6.1-2.4 0-.7-.1-1.4-.1-2.1-.2-1.4 0-2.8 0-4.1.2-.5.1-1.1.1-1.6.1-1 0-2 .1-3 .3-.6.1-1.2.1-1.7.1h-1.9c-.5 0-1 0-1.4.1-1.8.3-3.6.2-5.4 0-1-.1-1.9-.2-2.9 0-1.3.2-2.5.2-3.8.2-2.8 0-5.5 0-8.3.2-3 .2-6.3 0-9.4-.3l-6.3-.6c-.4.3-.8.4-1.2.4zm59.4 66.1c0 .3-.1.6-.1.9-.1.5-.4.8-.9.7-.2 0-.4-.1-.6-.1-.7-.1-1.4-.2-2.1-.2-.5 0-1-.1-1.4-.1-.4 0-.8 0-1.1-.1-.5-.2-.3-.7-.5-1.1-.1-.1-.1-.3-.2-.4-.2-.3-.3-.7-.3-1.1v-1c.2-1.1.2-2.2 0-3.3-.1-.5 0-1.1-.1-1.6-.2-.9-.2-1.9-.2-2.9v-3.2c0-2.5.1-5 0-7.5 0-.6 0-1.2-.1-1.7-.2-1.5-.3-3.1-.5-4.6-.1-1.5-.4-3-.4-4.6 0-.2 0-.4-.1-.6-.2-1.2-.2-2.3-.3-3.5 0-1.6-.1-3.2-.2-4.8-.2-2-.2-3.9.1-5.9.1-.5.1-.9.2-1.4.3-1.6.2-3.2 0-4.8 0-.4-.1-.7-.1-1.1 0-.2.2-.4.4-.5.5-.2 1-.2 1.6 0 .2.1.4.2.5.4.1.2.2.4.2.6.1.7.3 1.4.4 2 .3 2.4.5 4.8 1 7.3.3 1.9.5 3.8.6 5.7.1 1.2.1 2.3.3 3.5.2 1.2.3 2.3.4 3.5.1 1 .2 1.9.2 2.9 0 1.1.1 2.2.3 3.3.1.6.2 1.1.3 1.7.1 1.3.4 2.6.4 4 0 .2 0 .4.1.6.3 1.8.6 3.6.6 5.4 0 .2 0 .4.1.6.4 2.7.8 5.3.9 8.1 0 .2 0 .4.1.6.2 1.1.3 2.2.5 3.3-.1.3 0 .6 0 1zm3.6 19.5c-.1-.5.2-1 .8-1.4 1.3-1 2.6-2 4-2.9.1-.1.2-.1.3-.2.2-.1.6 0 .6.3.2 1.2.4 2.4.4 3.6 0 .8.1 1.6.2 2.4 0 .4.1.7.1 1.1.1 1.4 0 2.8.3 4.1v.6c0 1 .1 2 .3 3 .1.4.1.7.1 1.1 0 .4 0 .8.1 1.3.2 1.5.4 3.1.5 4.6.2 2.5.6 5.1.9 7.6.2 1.8.4 3.6.4 5.4 0 .7 0 1.5.1 2.2.3 2.1.2 4.1.4 6.2.1 1.1.1 2.1.2 3.2.1 1.3.3 2.5.7 3.7.1.2.1.4.1.6 0 .2-.1.5-.4.6-.8.4-1.7.4-2.6.3-.3 0-.5-.2-.6-.5-.1-.5-.3-1-.4-1.5l-.6-5.4c-.3-2-.6-4-1.1-6-.3-1.1-.5-2.3-.7-3.4-.1-.7-.2-1.4-.2-2.1-.2-1.7-.5-3.4-.6-5.1 0-.3-.1-.5-.1-.8-.2-1.5-.4-3.1-.5-4.6-.2-2.2-.4-4.3-.7-6.5-.2-1.7-.5-3.4-.7-5-.1-.4-.1-.7-.2-1.1-.5-1.7-.6-3.4-.9-5.2-.2.3-.2.1-.2-.2zm-43.4-8c.1-.7 0-1.5.1-2.2.2-2.6.2-2.7 2.9-2.9 1.1-.1 2.2 0 3.3-.1.8 0 1.7 0 2.5-.1.7 0 1.5-.2 2.2-.2 1.7 0 3.4-.2 5.1-.5 2.6-.4 5.2-.3 7.7.3l.9.3c.3.1.5.4.6.7.1.7.2 1.5.2 2.2 0 .7.1 1.4.1 2.1 0 .8-.1 1.6-.1 2.4 0 .3-.3.6-.6.7-.7.2-1.3.3-2 .5-.8.2-1.6.2-2.4.1-.4 0-.7-.1-1.1-.1-.7.1-1.5 0-2.2 0-.6-.1-1.2 0-1.7.1-1.1.3-2.2.4-3.3.5-.5.1-1.1.1-1.6.3-1.6.4-3.2.3-4.7.1-.5-.1-1.1-.1-1.6-.2l-3.3-.3c-.6-.1-.9-.4-1-1.1v-1.1-1.5zm-7.2-67.4c-.8 0-2 0-3.1-.1-1.2-.2-2.4-.3-3.6-.4-1.3-.2-2.5-.3-3.8-.5-1.3-.2-2.5-.3-3.8-.4-.3 0-.5-.1-.8-.2-.5-.2-.7-.6-.6-1.2 0-.3.3-.5.5-.6.2 0 .3-.1.5-.1h5.1c.4 0 .9 0 1.3.1.6.1 1.2.1 1.7 0 1.2-.1 2.3-.1 3.5.1.4.1.8.1 1.3.1h5.7c3-.1 5.9.3 8.9.5h.3c1.2.1 2.4.2 3.7.2 2.1-.1 4.2-.1 6.4-.1 1.1 0 2.1 0 3.2-.2.5-.1.9-.1 1.4-.1h6.4c.5 0 1.1 0 1.6-.1.9-.1 1.8-.1 2.7 0 .6.1 1.2.1 1.7.1 1.6-.2 3.2-.4 4.7-.7 1.3-.3 2.6-.5 3.9-.7.7-.1 1.5-.3 2.2-.4.3-.1.6-.2.9-.2 1.1-.2 1.5.1 1.5 1.2 0 .2 0 .4-.1.6 0 .3-.2.5-.4.6-.4.3-1 .4-1.5.5-1.1.2-2.2.4-3.3.5-.9.1-1.8.2-2.7.4-.6.1-1.3.1-1.9.2-1.7.3-3.4.5-5.1.5-.8 0-1.6 0-2.4.1-2.1.2-4.2.4-6.3.5-.2 0-.4 0-.6.1-.7.2-1.5.2-2.2.2-1 0-2 .1-3 .2-.7 0-1.5.1-2.2.1h-7.7c-.8 0-1.6-.1-2.4-.2-1.8-.2-3.7-.5-5.5-.5-.4 0-.9 0-1.3-.1h-4.8zm-.6 80.8c.1-1 .1-1.8.2-2.6 0-.1 0-.2.1-.3 0-.2.3-.5.5-.5s.3-.1.5-.1c1.2 0 2.4.3 3.6.6.1 0 .1 0 .1.1.2.1.4.3.4.5 0 .6.1 1.2 0 1.7-.1 1.9-.2 3.8-.2 5.7 0 2.7-.2 5.3-.4 8 0 1-.2 1.9-.2 2.9v2.2c0 1-.1 1.9-.2 2.9-.2 1.6-.4 3.2-.4 4.8 0 2-.4 3.9-.9 5.8-.2.7-.4 1.4-.5 2.2-.2 1-.4 2.1-.6 3.1 0 .2-.3.5-.5.5-.8.1-1.6.1-2.4-.2-.5-.2-.8-.5-.7-1.1 0-.6 0-1.2.1-1.7.1-1.3.4-2.6.5-4 .1-1.8.3-3.6.4-5.4.1-2.1 0-4.1.1-6.2 0-.8 0-1.6.1-2.4.2-1.2.2-2.4.3-3.6 0-.3 0-.5.1-.8.2-1.3.2-2.6.2-4 0-.8 0-1.6.1-2.4.2-1.1.2-2.2.1-3.3-.3-1-.3-1.8-.4-2.4zm33.6-6.6c0 .6 0 1.2-.1 1.7 0 .4-.4.8-.8.8h-1.4c-.6-.1-1.2-.1-1.7 0-1.2.2-2.3.2-3.5.2-1.2 0-2.4 0-3.7.1-1.5.1-3.1.1-4.6-.1-1.7-.2-3.4-.2-5.1-.1-.7.1-1.5.1-2.2 0l-2.7-.3c-.7-.1-1.5-.2-2.2-.1-.5 0-1.1 0-1.6-.1-2.1-.4-4.3-.8-6.4-1.2-2.2-.4-4.4-1.1-6.7-1.3h-.2c-.4-.1-.6-.4-.7-.8 0-.9.1-1.8.3-2.7.1-.2.3-.4.5-.3.8.1 1.7.2 2.5.3 1.5.3 2.9.7 4.3 1 .7.2 1.3.4 2 .4 1.9.1 3.7.6 5.5.8.2 0 .4.2.6.3.2.1.3.3.4.5.3.3.8.4 1.2.1.5-.4 1-.6 1.6-.4.3.1.5.1.8.1 1.6.2 3.2.3 4.7.5 1 .1 2 .2 3 0 1.1-.3 2.3-.5 3.5-.5.3 0 .5-.1.8-.1 1.8-.3 3.6-.5 5.4-.4h.3c1.3.1 2.6 0 4-.2.5-.1.9-.1 1.4-.1.3 0 .6.3.6.6.2.2.2.8.2 1.3zM174.8 82c.7 0 1.4 0 2.1.1.7.1 1.4.2 2 .3.3.1.6.3.7.6.2.4.2.8 0 1.2-.1.2-.2.4-.4.4-.3 0-.5.1-.8 0-1.1-.1-2.1-.3-3.2-.4-1.1-.2-2.2-.2-3.3 0-1 .2-2.1.4-3.2.5-2.1.2-4.1.3-6.2.4-.2 0-.4 0-.6.1-.6.1-1.2.1-1.7 0-.9-.1-1.8-.1-2.7.1-1.6.2-3.2.4-4.7.5-2.6.3-2.6.3-5.1 1.1-.8.3-1.5.5-2.3.7-.6.2-1.1.3-1.7.5-.8.3-1.6.6-2.5.6-1 .1-1.9.5-2.8 1.1-.3.2-.5.4-.8.5-.1 0-.2 0-.3-.1l-.1-.1c.1-.8.2-1.7.3-2.5 0-.1.1-.3.3-.4.3-.2.7-.3.9-.6.3-.4.8-.5 1.3-.7 1.5-.5 2.9-.9 4.4-1.4.2-.1.4-.1.6-.1 1.5-.3 3-.7 4.6-.7.2 0 .4-.1.6-.1 1.6-.3 3.2-.5 4.8-.5.5 0 1 0 1.4-.1 1.5-.2 3-.3 4.4-.5 1.1-.1 2.1-.3 3.2 0h3.6c.9 0 1.8-.1 2.7-.2 1.5-.1 3-.4 4.5-.3zm28.5 9.3c.1.9-.3 1.6-1 2.2l-3.9 3c-.4.3-.9.6-1.4.7-.5.1-1 .4-1.4.7-1.3 1-2.8 1.5-4.3 2.1-.7.3-1.4.2-2 .1-.2-.1-.4-.2-.4-.4-.1-.4-.1-.7-.1-1.1 0-.9 0-1.8-.2-2.7v-.6c0-.3.2-.5.4-.6.1-.1.2-.1.3-.1.9-.2 1.7-.7 2.5-1.1.8-.4 1.6-.9 2.4-1.2 1.5-.5 2.9-1.1 4.3-1.7 1.1-.4 1.9-1.2 2.8-1.8.2-.1.3-.3.4-.5.2-.2.3-.4.5-.6.1-.2.3-.3.5-.3.1 0 .2.2.3.5.1.7.1 1.5.2 2.2 0 .5.1.9.1 1.2zm-15.1 0c.1-1.2.1-2.3.2-3.4 0-.2.2-.4.5-.3.7.2 1.4.4 2.1.7.6.2 1.1.4 1.6.6.5.1.9.3 1.3.6.3.2.6.3.9.4.3.1.6-.1.8-.4.2-.3.2-.6 0-.9-.1-.2-.3-.3-.5-.4-.3-.2-.6-.4-1-.5-1.2-.5-2.5-.8-3.7-1.4-.2-.1-.4-.1-.6-.2-.3-.1-.5-.1-.8-.2-.9-.3-1.1-.7-1.1-1.7 0-.6.3-.9.8-.9s1 0 1.4.1c.5 0 1.1.1 1.6.2.8.1 1.6.2 2.3.6.4.2.8.3 1.2.2.7-.2 1.5-.2 2.2 0 1 .3 2 .6 3 1 .1 0 .2.1.3.2.3.2.4.6.2.8-.7.9-1.4 1.9-2.4 2.5-.7.4-1.5.8-2.3 1.1-.6.2-1.1.4-1.7.6-1.2.4-2.3.9-3.3 1.5-.5.3-1 .6-1.5.8-1.3.7-1.5.4-1.5-1v-.6zm-35.3.1v2.2c0 .3 0 .6-.1.9 0 .2-.3.5-.6.5h-.5c-1.3 0-2.5-.3-3.8-.5-.5-.1-.9-.2-1.4-.3-.3-.1-.5-.3-.6-.6 0-.2-.1-.4-.1-.6 0-.7.1-1.4.1-2.1 0-.3.1-.6.1-.9.1-.6.5-1 1.1-1.2.7-.2 1.3-.5 2-.7.7-.2 1.3-.4 2-.6.3-.1.5-.1.8-.1.4 0 .7.3.8.6.1.3.1.5.1.8.1.9.1 1.8.1 2.6zm32.5-75.7c1.4 0 3.1.1 4.8.1h.2c.1 0 .3.2.2.4-.4 1-.4 2 .3 2.8v.2s0 .1-.1.1c-.5.3-1.1.4-1.7.3-.1 0-.2-.1-.2-.2 0-.2 0-.3.1-.5.2-.7.1-1.3-.2-1.8-.3-.6-.7-.9-1.4-.9h-1.1c-.4.1-.8.3-1.1.6-.3.4-.4.9-.2 1.3.1.2.2.4.3.5.2.2.4.5.7.7l.3.3v.1c-.1.1-.2.2-.2.1-.6 0-1.3-.1-1.9-.1-.4 0-.9.3-1.2 0-.4-.4-.1-.9-.1-1.4 0-.5 0-1-.2-1.4-.1-.3-.4-.5-.7-.6-.9-.3-1.7-.1-2.3.6-.5.5-.6 1.3-.1 1.9.2.2.5.4.7.7.1.1.1.2.1.3l-.1.1c-1 0-2 0-3 .1 0 0-.1 0-.1-.1l-.2-.2c.1-.5.3-.9.4-1.4.1-.4.1-.7 0-1.1l-.3-.6c-.1-.2 0-.3.2-.4 1.2-.3 2.4-.5 3.6-.6 1.2.1 2.7.1 4.5.1zm-19.1.6h1.4c.3 0 .4.2.3.4-.1.2-.3.5-.4.7-.3.8 0 1.6.7 2.1.3.2.6.4 1 .5.6.2 1.1.1 1.7-.1.6-.2.9-.9.7-1.4-.1-.3-.2-.5-.3-.7l-.6-.9c-.1-.1 0-.4.2-.4.1 0 .2-.1.3-.1.5 0 1 0 1.4-.1.4 0 .5.2.4.5-.3.7-.2 1.2.2 1.8.2.3.5.6.7.8.1.1.1.2.1.3 0 .1 0 .2-.1.3-.2.1-.5.2-.7.3-.7.1-1.4.1-2 .2-.6.1-1.3.1-1.9.1-1-.1-2-.1-3-.1-.3 0-.5-.1-.8-.1-.1 0-.2-.1-.2-.2v-.5c.2-.8 0-1.5-.4-2.1-.1-.2-.3-.5-.4-.7-.1-.2 0-.4.3-.4.6-.2 1-.2 1.4-.2zm-22 75.4c0 .3-.1.8-.1 1.3 0 .3-.4.6-.7.5-.7-.1-1.5-.2-2.2-.3-.9-.2-1.8-.5-2.7-.8-.1 0-.2-.3-.1-.4.1-.1.2-.3.3-.3 1.1-.6 2.2-1.3 3.5-1.5.5-.1.9-.2 1.4-.3.3-.1.6.2.6.6v1.2zm9.9-71.7c-.5-.1-1.1-.1-1.6-.2-.3 0-.5-.3-.4-.5.2-.6.1-1.1-.2-1.7-.1-.1-.1-.3-.2-.4-.1-.2.1-.5.3-.5.8-.1 1.7-.1 2.5 0 .1 0 .2.2.2.4 0 .1-.1.2-.1.3-.3.6-.1 1.1.3 1.6.2.2.4.5.6.7v.3l-.1.1c-.4-.1-.8-.1-1.3-.1zm-6.9-.2c-.7 0-1.4-.1-2.1-.1-.2 0-.3-.2-.2-.4.4-.6.5-1.2.4-1.8-.1-.8.3-.8.8-.8.3 0 .5.1.8.1.5 0 .8.2.9.7.1.6.5 1 1 1.4.2.2.6.3.6.7-.3.4-.7.2-1 .2h-1.2zm46.9-4.3c.3-.1.6-.1.9-.2.1 0 .2.2.2.2-.4.8-.3 1.6.2 2.4.1.1.1.2.1.3.1.2-.1.5-.2.5-.4.1-.7.1-1.1.1-.3 0-.5-.2-.6-.5-.3-.7-.5-1.5-.8-2.2 0-.1.1-.2.1-.3.5-.2.8-.2 1.2-.3zm-51.8 4.2c-.6-.1-1.3-.2-2-.3-.2 0-.4-.3-.3-.5.4-.8.4-1.6 0-2.4v-.2c0-.1.1-.2.2-.2.4-.1.7-.1 1.1.1.1 0 .2.2.2.2 0 .2 0 .3-.1.5-.2.5-.1.9.2 1.3.2.2.4.4.6.5l.9.6v.1l-.1.1c-.2.2-.5.2-.7.2zM198 15c.1-.1.1-.2.2-.3.4-.3.9-.2.9.3.1.4.1.7.3 1.1.2.3.3.5.5.8.1.2 0 .4-.2.5l-.1.1c-.4.2-.8.1-.9-.3-.2-.7-.4-1.3-.7-1.9V15zm-59.7 3.2h-.2c-.3-.1-.5-.3-.6-.7v-.1l.1-.1c.3.1.5.3.7.6.1.1 0 .2 0 .3zm24.9 0h.1l.2.2s0 .1-.1.1-.3-.1-.3-.2c.1 0 .1 0 .1-.1zm23.9.1c-.1 0-.2 0-.2-.2 0-.1.1-.2.2-.2 0 0 .1 0 .1.1 0 .2 0 .3-.1.3zm-12.2-.3v-.1c.1-.1.2-.1.2.1v.1c-.1.1-.1 0-.2-.1zm-5.7.3c0-.1.1-.1 0 0 .1-.1.2 0 .3 0l-.1.1c-.1-.1-.1-.1-.2-.1zm-25.8-.7v.1-.1z"/></defs><clipPath id="SVGID_8_"><use xlink:href="#SVGID_7_" overflow="visible"/></clipPath><g class="st3"><defs><path id="SVGID_9_" d="M119.1-.1h91v171h-91z"/></defs><clipPath id="SVGID_10_"><use xlink:href="#SVGID_9_" overflow="visible"/></clipPath><path class="st4" d="M114.7-5h100.4v179.9H114.7z"/></g></g></g></g><defs><path id="SVGID_11_" d="M209 83.9v.1h.1z"/></defs><clipPath id="SVGID_12_"><use xlink:href="#SVGID_11_" overflow="visible"/></clipPath><g class="st5"><defs><path id="SVGID_13_" d="M-851.9-2620.1h1440v4613h-1440z"/></defs><clipPath id="SVGID_14_"><use xlink:href="#SVGID_13_" overflow="visible"/></clipPath><path class="st6" d="M204 78.9h10.1v10.2H204z"/></g><g><defs><path id="SVGID_15_" d="M135.1 6.5c0-.1 0-.3-.1-.4-.1-.1-.2-.2-.3-.2-.1 0-.2.2-.2.3 0 .1 0 .3.1.4.1.1.3.1.4.1 0-.1.1-.2.1-.2"/></defs><clipPath id="SVGID_16_"><use xlink:href="#SVGID_15_" overflow="visible"/></clipPath><g class="st7"><defs><path id="SVGID_17_" d="M-851.9-2620.1h1440v4613h-1440z"/></defs><clipPath id="SVGID_18_"><use xlink:href="#SVGID_17_" overflow="visible"/></clipPath><path class="st8" d="M129.5.9h10.7v10.8h-10.7z"/></g></g><g><defs><path id="SVGID_19_" d="M0 37.3h93.6v162.5H0z"/></defs><clipPath id="SVGID_20_"><use xlink:href="#SVGID_19_" overflow="visible"/></clipPath><g class="st9"><defs><path id="SVGID_21_" d="M-254.4-2620.1h1440v4613h-1440z"/></defs><clipPath id="SVGID_22_"><use xlink:href="#SVGID_21_" overflow="visible"/></clipPath><g class="st10"><defs><path id="SVGID_23_" d="M-.4 36.9h94v164h-94z"/></defs><clipPath id="SVGID_24_"><use xlink:href="#SVGID_23_" overflow="visible"/></clipPath><g class="st11"><defs><path id="SVGID_25_" d="M62.4 188.5c0 3.2.1 6.5 0 9.7 0 .7-.4 1.3-1.1 1.4-.6.1-1.3.3-1.9.3-1.2.1-2.1-.7-2.2-1.9v-.8-1.6c0-1.8 0-3.6-.2-5.3-.1-1.1-.2-2.1-.2-3.2 0-1.2 0-2.5-.1-3.7 0-.5 0-1.1-.1-1.6-.1-.9-.2-1.7-.2-2.6 0-1.1 0-2.2-.2-3.2-.1-.5-.1-1.1-.1-1.6-.1-.6-.1-1.3-.2-1.9-.2-1.4-.5-2.9-.5-4.3 0-.3 0-.6-.1-1-.2-1-.2-1.9-.2-2.9 0-.5 0-1-.1-1.5-.2-1.3-.2-2.6-.2-3.9 0-.6 0-1.2-.1-1.8 0-.8-.4-1.3-1.2-1.6-.6-.2-1-.6-1.3-1.1-.2-.3-.3-.7-.3-1.1-.2-1.4-.4-2.8-.7-4.1-.1-.4-.1-.7-.3-1.1-.3-.9-.5-1.8-.7-2.7-.4-1.8-.8-3.6-1.4-5.3-.5-1.4-1.1-2.7-1.9-3.9-.5-1.2-1.3-2.2-2.2-3.1-1.4-1.5-3-2.8-4.8-3.9-.5-.3-1-.6-1.5-1-1.4-.9-2.9-1.5-4.4-2-1.4-.4-2.9-.4-4.3-.2-1.6.2-3 .9-4.2 2-.3.3-.6.6-.8 1-.5 1-1.1 2-1.4 3.1-.4 1.4-.8 2.8-1 4.2-.1.6-.1 1.3-.2 1.9-.3 1.3-.3 2.7-.3 4v.8c-.1.4-.3.7-.7.8-.2.1-.4.1-.6.1-.3 0-.5.1-.8.1-.1 0-.3.2-.4.3-.1.2-.2.5-.3.7-.1.7-.3 1.5-.4 2.2l-1.2 7.5c-.5 2.8-1.1 5.5-1.7 8.2-.5 2.2-1.4 4.3-2.5 6.3s-2.4 3.9-3.4 5.9c-.2.5-.5 1-.8 1.4-.2.4-.6.7-1 .7-.3.1-.6.1-1 0-.7-.1-1.4-.3-2-.6-.3-.1-.6-.3-.8-.5-.4-.3-.5-.9-.3-1.3.4-.8.9-1.5 1.2-2.3.4-.9.7-1.8 1.2-2.7.3-.7.6-1.4.7-2.1.2-1 .5-2.1.8-3.1.5-1.8.9-3.7 1.5-5.5.1-.3.1-.6.2-.9.1-.3.1-.6.2-.9.6-1.5.9-3 1.3-4.5.2-.7.3-1.4.5-2 .6-1.8 1.1-3.6 1.8-5.4.7-1.9 1.2-3.8 1.5-5.8.2-1.2.5-2.4.7-3.6.3-2.1.7-4.1.8-6.2.1-1.2.2-2.5.2-3.7 0-.7 0-1.4.1-2.1.2-2 .3-4 .1-6-.1-1.2-.1-2.4-.2-3.5-.1-1.8-.3-3.6-.5-5.5-.1-1.1-.2-2.1-.2-3.2 0-1 0-1.9-.3-2.9-.1-.5-.2-1-.3-1.6-.2-1.2-.5-2.3-.6-3.5-.2-1.8-.4-3.5-.8-5.3-.5-2-1-4.1-1.8-6.1-.8-2.3-1.8-4.6-2.6-7-.1-.4-.3-.7-.4-1-1.2-2.4-2.3-4.7-3.5-7.1-.9-1.9-1.9-3.8-2.4-5.8 0 0-.1-.2-.1-.4-.7-1.5-1.2-3.1-1.7-4.7-.1-.5-.3-1-.4-1.6-.6-1.8-.8-3.6-.9-5.5 0-.9.1-1.8.5-2.7.2-.3.3-.7.4-1.1.2-.8.6-1.6 1-2.4.7-1.1 1.3-2.3 2.1-3.4.4-.6.8-1.1 1.3-1.7.9-.9 1.8-1.7 3-2.2.7-.3 1.4-.6 2-1 .5-.3 1-.5 1.5-.7 2.2-.7 4.4-1 6.7-.9 1 .1 2 .1 3.1.2.4 0 .9.1 1.3.1.4.1.9.2 1.3.2 4.1.4 7.9 1.8 11.5 3.8.2.1.5.3.7.4 1.3.9 2.5 1.8 3.6 3 .5.5 1.1 1 1.7 1.5.4.4.8.7 1.1 1.2.5.6.9 1.2 1.4 1.8.8.9 1.6 1.8 2.2 2.8.5.8 1 1.7 1.5 2.5s.9 1.6 1.2 2.5c.6 1.6 1.2 3.1 1.8 4.7.3.9.6 1.7.8 2.6.2 1.1.4 2.1.6 3.2.2 1.4.5 2.9.4 4.3v1.6c.2 1.6.2 3.1.2 4.7 0 1.3 0 2.6.2 3.9.1.5.1 1 0 1.5-.1 1.2-.1 2.4-.3 3.5-.3 1.9-.3 3.8-.3 5.6 0 1.2 0 2.4-.1 3.5v1c0 .4.1.7.1 1.1 0 1.5.2 1.5 1.6 1.3.3 0 .6-.1 1-.2 1.5-.2 3-.2 4.5 0l2.4.3c1.7.1 3.3.2 5 .4l2.7.3c1.3.2 2.7.4 4 .6 1.3.2 2.6.4 3.8.6.7.1 1.4.3 2 .6 1.1.5 2.1 1 3.2 1.5.2.1.4.2.5.4.5.5 1.1.8 1.8 1.1 1.3.6 2.4 1.5 3.2 2.6.1.1.1.2.2.3.2.3.4.5.7.6.2.1.5.2.7.3.5.2.8.6 1.1 1.2.4 1 .6 2.1.9 3.1.2 1 .1 1.8-.3 2.7-.2.5-.5.8-.9 1.1-.4.3-.5.8-.5 1.3.1.6.2 1.3.2 1.9v8.9c0 .8.1 1.5.2 2.2.1 1.6.4 3.1.4 4.7s.3 3.2.4 4.8c.1.9.2 1.7.2 2.6 0 .7 0 1.4.1 2.1.2 1.1.2 2.1.2 3.2 0 .9.1 1.7.3 2.6.3 1.3.4 2.5.4 3.8 0 1 0 1.9.1 2.9.1.9.2 1.7.2 2.6 0 .6 0 1.2.1 1.8.2 1.2.2 2.4.2 3.5v4.2c0 .9.1 1.8.2 2.7.1.7.1 1.5.1 2.3 0 .6-.4 1-1 1.1-.4 0-.9.1-1.3 0-1.6-.1-2-.6-2.3-2-.3-1.2-.3-2.4-.4-3.7 0-2.3 0-4.6-.2-6.9-.2-2-.3-4.1-.6-6.1 0-.3-.1-.6 0-1 .1-2.9-.4-5.7-.5-8.5 0-.3-.1-.5-.1-.8-.2-1.4-.4-2.9-.4-4.3 0-.8-.1-1.5-.1-2.3 0-.3-.2-.5-.4-.7-.4-.3-.9-.6-1.4-.9-.6-.3-.8-.8-.9-1.4-.1-.4-.1-.7-.1-1.1v-1.9c0-1.3 0-2.7-.2-4-.1-.9-.2-1.8-.2-2.7 0-1.2-.3-2.3-.7-3.5-.1-.2-.2-.5-.4-.7-.5-.8-1.7-1.6-3.1-.9-.7.4-1.5.7-2.1 1.3-1.1 1-2.1 2-3 3.1-1 1.2-2 2.4-2.9 3.7-2.4 3-4.2 6.4-5.4 10.1-.5 1.6-1 3.3-1.1 5 0 .3-.1.5-.1.8-.2.9-.2 1.8-.1 2.7.1 1 0 2 0 3.1 0 1.2-.1 1.6-1.4 2-.3.1-.5.4-.5.7-.1 1.2-.1 2.5.1 3.7.2 1.1.2 2.3.2 3.4v2.1c0 1.3 0 2.7-.1 4-.2 1.7-.2 3.4-.2 5.2 0 1.2.1 2.4.1 3.6 0 2.3-.1 4.5-.1 6.9-.1 1.3-.1 2.7-.1 4.1zM12.4 58c-.4.4-.7 1-.9 1.5-.5 1.3-1 2.6-1.3 4-.3 1.2-.3 2.4-.2 3.7 0 .4.1.8.1 1.1 0 .5 0 .9.3 1.4.3.5.5 1.1.7 1.6.2.5.4 1 .7 1.5 1.1 1.8 1.8 3.7 2.6 5.5 1.5 3.2 2.6 6.5 3.7 9.8.6 1.7 1.1 3.5 1.6 5.3.2.8.5 1.5.7 2.3.2.7.3 1.4.4 2.1.1.4.1.7.4 1 .1.1.1.1.2 0 0-.1.1-.2.1-.3.1-2-.1-4-.7-5.9-.2-.5-.3-1-.5-1.5-.4-1.6-1-3.1-1.6-4.6-.3-.7-.6-1.5-.9-2.3-.7-1.9-1.6-3.8-2.6-5.6-.6-1-1.1-2.1-1.4-3.2-.6-1.7-1.1-3.4-1.7-5.1-.2-.5-.3-1-.3-1.6-.1-1.2-.2-2.4-.3-3.5v-.5c-.3-1.4 0-2.7.3-4 .1-.5.3-1 .5-1.5-.1-.4 0-.8.1-1.2l.3-.3-.3.3zm31.2-2.3c-.7-1.4-1.4-2.8-2.5-3.9-1-1-2-2-3-2.9-.6-.6-1.3-1.1-1.9-1.7-.5-.4-1-.8-1.6-1.1-.6-.3-1.2-.6-1.8-1-1.1-.8-2.2-1.3-3.4-1.9-.6-.3-1.2-.5-1.8-.6-1.5-.3-3.1-.6-4.6-.8h-.3c-2.2-.2-4.3-.2-6.5.3-.4.1-.8.2-1.2.4-.9.4-1.9.8-2.8 1.3-.8.4-1.5 1-2.1 1.7-.5.6-1 1.3-1.4 2-1.3 1.8-1.8 3.9-1.9 6.1v2.1c0 1.6.1 3.2.4 4.8.2.9.5 1.8.9 2.6l.1.1c.1 0 .2-.1.3-.1.3-.9.7-1.7 1-2.6.2-.4.3-.8.5-1.2.6-1.7 1.8-3.1 3.2-4.2.7-.6 1.5-1 2.3-1.5 1.4-.8 2.8-1.4 4.3-1.8.4-.1.7-.2 1.1-.3 2.1-.7 4.2-1 6.4-1h1.6c1.2-.1 2.5 0 3.7.2.8.2 1.7.3 2.6.4 1.3.2 2.6.7 3.9 1.2.6.2 1.2.5 1.7.9.8.6 1.5 1.2 2.2 1.9-.1.1.3.3.6.6zM14.2 72c.9 2.8 2 5.4 3.5 8 .4.7.7 1.5 1 2.2.6 1.5 1.1 3 1.7 4.5 1 2.3 1.7 4.8 2.3 7.2.4 1.5.4 3.1.5 4.6 0 .3 0 .5-.1.8-.1.5-.3 1.1-.7 1.4-.6.5-.8 1.1-.8 1.9 0 .6.1 1.2.2 1.8.1.9.2 1.7.2 2.6 0 1.1 0 2.3.1 3.4v.3c0 .2.3.4.5.3.2-.1.4-.1.6-.3.2-.2.4-.5.6-.8.9-1.4 2.2-2.5 3.7-3.3 1.2-.6 2.4-1.3 3.7-1.7.3-.1.5-.2.7-.3 2-1.1 4.1-1.9 6.3-2.5.4-.1.7-.2 1.1-.4 1-.5 2.1-.6 3.1-.7 1.3-.2 2.7-.3 4-.5.4-.1.7-.3.7-.7v-.2c.1-1.2.1-2.4.3-3.5.1-.4-.1-.7-.5-.9l-.9-.6c-.3-.2-.4-.5-.5-.8 0-.3-.1-.6-.1-1 0-1.3 0-2.6.2-3.9.1-.4.1-.9.1-1.3 0-1.6.1-3.1.1-4.7v-.2c.3-1.7 0-3.4 0-5.2 0-.9-.1-1.8-.2-2.7-.1-.3-.1-.5-.1-.8 0-1.8-.5-3.6-.8-5.4-.1-.7-.4-1.4-.7-2.2-.9-2.6-2.3-5-4-7.2-.3-.4-.7-.8-1.2-1.1-1.5-.9-3-1.7-4.7-2.2-2.1-.6-4.3-1.1-6.4-1.6-.9-.2-1.8-.3-2.7-.5h-.6c-1.7.2-3.3.5-4.9 1.1-1.4.6-2.7 1.4-3.9 2.3-.8.6-1.4 1.5-1.8 2.5-.7 1.6-.9 3.3-.8 4.9.1 2.7.5 5 1.2 7.4zm42.9 48.1c.4 0 .8 0 1.1-.1.5 0 1 0 1.5-.1 1.2-.2 2.5-.3 3.7-.4.8 0 1.5-.2 2.2-.4 1.4-.4 2.7-.8 4-1.2 1.1-.3 2.2-.7 3.3-.9.9-.2 1.8-.5 2.6-1 .2-.1.5-.3.7-.3 1.5-.5 2.9-1.3 4.3-1.9 1.8-.7 3.4-1.8 5-2.9.3-.2.5-.4.7-.7.5-.6.5-1.3 0-1.9-.5-.5-1-1-1.6-1.3-1.4-.7-2.7-1.6-4-2.4-1.9-1.1-3.9-1.8-6.1-2-.9-.1-1.8-.2-2.7-.4-.9-.2-1.8-.3-2.7-.4-1.9-.2-3.9-.4-5.8-.5l-3.9-.3c-2.1-.2-4.1-.1-6.1.4-.6.1-1.2.3-1.8.3-.8 0-1.5.2-2.2.6-.5.3-1 .4-1.5.1-.5-.3-1-.3-1.6-.3-.4 0-.9 0-1.3.1-1.2.3-2.4.4-3.5.5-.5.1-1.1.2-1.6.4-1 .4-2 .7-3.1 1-.9.3-1.8.7-2.7 1.1-1 .5-2 .9-2.9 1.4-1.6.7-3.2 1.6-4.6 2.7-1 .8-1.7 1.8-2.2 2.9-.1.2 0 .6.2.7.5.4 1.1.7 1.7 1 1.9.8 3.9 1.4 5.8 2 .2 0 .3.1.5.1 1.8.3 3.6.9 5.3 1.4.6.2 1.3.3 1.9.4.2 0 .4 0 .6.1 2.2.5 4.4.9 6.7 1.4l2.4.6c1.5.4 3.1.6 4.7.6.9-.2 1.9-.3 3-.4zm-7.2-33.2c-.1.8-.1 1.6-.1 2.4 0 .8 0 1.5-.2 2.3-.1.5-.1 1-.1 1.4 0 .8-.1 1.5-.2 2.2l-.3 2.1c-.1.7.1 1.4.1 2.1 0 .4.3.7.8.4.4-.2.7-.6.7-1V98c0-1.2.1-2.4 0-3.6-.1-2 .2-4 .3-6 0-.3 0-.5.1-.8.3-1.4.2-2.8.4-4.2v-1c-.1-1.7-.1-3.4-.1-5.2 0-1.1 0-2.2-.2-3.2-.1-1-.1-1.9-.1-2.9s-.1-1.9-.3-2.9l-.6-3.3c-.1-.7-.4-1.5-.6-2.2-.5-1.3-1-2.6-1.4-3.9-.2-.7-.6-1.4-.9-2.1-.4-.8-.9-1.6-1.3-2.4-.4-.8-.9-1.5-1.4-2.2-1.4-1.8-2.9-3.5-4.6-5-2.1-1.8-4.2-3.6-6.7-4.8-2.3-1.1-4.8-2-7.3-2.5-2-.4-4.1-.7-6.1-.7h-3.7c-1.6 0-3.2.4-4.7 1.2-.9.5-1.7.9-2.6 1.3-1.5.8-2.7 2-3.6 3.4-.7 1.1-1.3 2.2-1.9 3.4C2.5 50.2 1.9 52 2 54c0 .3 0 .5.1.8.3 2.4.8 4.8 1.7 7.1.6 1.7 1.3 3.3 1.7 5 .1.5.4 1 .6 1.5.9 2.6 2.1 5 3.3 7.4.6 1.3 1.2 2.6 1.7 3.8l2.1 5.4c.4 1 .7 2 1 3.1.3 1.3.7 2.6 1.1 3.9.4 1.1.6 2.3.7 3.5l.3 2.7c.1.8.3 1.6.5 2.4.2 1.4.5 2.8.7 4.1.1.6.1 1.3.1 1.9 0 .9 0 1.8.2 2.7 0 .2.1.4.1.6 0 2.3.5 4.6.4 6.9 0 .6.1 1.3.2 1.9.1.8.1 1.6 0 2.4-.1.6-.1 1.2-.1 1.8v1.5c0 .6-.1 1.3-.1 1.9 0 1.2-.1 2.5-.2 3.7-.3 2.3-.7 4.5-1 6.7-.2 1.4-.5 2.9-.8 4.3-.4 1.7-.9 3.3-1.5 4.9-1.3 3.8-2.4 7.6-3.4 11.5-.5 1.8-1 3.5-1.5 5.3-.3.9-.5 1.9-.7 2.8l-.6 2.7c-.3 1.1-.7 2.1-1.2 3.2-.5 1-.9 2.1-1.1 3.2-.1.4.2.7.6.8.4.1.8 0 1-.3.2-.2.3-.4.5-.7 1.2-2 2.5-4.1 3.7-6.1.4-.7.8-1.5 1.1-2.3.9-2.4 1.5-4.9 1.9-7.5.1-.5.2-1.1.3-1.6.1-.4.2-.7.2-1.1.1-1.5.5-3 .8-4.5l1.2-7.2c.3-2.2.6-4.4 1-6.6.2-1.4.3-2.9.5-4.3 0-.3 0-.6.1-1 .3-1.7.3-3.4.3-5.2 0-.6.1-1.3.1-1.9 0-.5.1-1.1.1-1.6.1-3.3.3-6.7.9-10 .1-.4.1-.9.1-1.3-.2-1.2-.1-2.4-.4-3.5-.1-.3-.1-.6.1-.9.2-.3.2-.7.2-1.1-.1-1.7-.3-3.4-.5-5.1-.1-1.1-.4-2.2-.7-3.3-.5-1.9-.9-3.8-1.4-5.6-.5-1.7-1.1-3.4-1.7-5-.6-1.7-1.1-3.4-1.8-5-.9-2.1-1.6-4.2-2.7-6.2-.7-1.4-1.3-2.9-2-4.2C9 70.1 8 68 7.4 65.8c-.2-.7-.5-1.4-.8-2.1-.6-.7-.9-1.5-1.1-2.3-.3-1.1-.5-2.2-.6-3.3-.1-1.6-.1-3.1-.1-4.7 0-.8.1-1.5.3-2.2.1-.5.3-1 .4-1.6l.3-.9c.8-1.5 1.6-3 2.8-4.3 1-1.1 2.1-1.9 3.4-2.5.7-.3 1.5-.7 2.2-1 .3-.1.7-.3 1.1-.4 2.3-.5 4.7-.9 7.1-.4 1.1.2 2.2.3 3.4.6 1.3.3 2.5.6 3.8 1 1.2.4 2.4 1 3.4 1.8.8.6 1.7 1.2 2.6 1.6.7.3 1.2.8 1.7 1.2.6.6 1.3 1.2 1.9 1.7 1.1.9 2 2 2.9 3 .9 1.1 1.8 2.3 2.4 3.6l.3.6c1.1 1.7 1.8 3.6 2.3 5.5.2.7.5 1.4.7 2.1.2.7.5 1.3.6 2 .4 2.3.7 4.6 1.1 6.9.1.6.2 1.3.2 1.9 0 1.1 0 2.3.3 3.4.1.5.1 1 .1 1.4v3.1c.1 1.8 0 3.6-.2 5.4zm-27 30.1c0 .7.3 1.1.9 1.4.1.1.2.1.3.2 2.2.7 4.2 2 6.5 2.4.4.1.7.3 1.1.4 1 .4 2 .8 3.1 1l.9.3c1.9.8 3.9 1.3 5.8 1.9.5.1.9.3 1.4.2.6 0 1.2.1 1.7.4.8.4 1.6.6 2.5.8 1.7.3 3.4.7 5.1 1 .3.1.6.1 1 .1.5 0 1 0 1.4.2.6.2 1.2.2 1.8.1 1.2-.2 2.4-.2 3.6-.2 1.1 0 2.3-.3 3.4-.5s2.2-.5 3.3-.7c1-.2 1.9-.7 2.9-.9 1-.3 2-.5 2.9-.9 1-.4 1.9-.7 2.9-1.1.8-.3 1.6-.7 2.3-1.2.9-.6 1.8-.9 2.9-.9.8 0 1.5-.2 2.2-.4.5-.2 1-.4 1.5-.5.6-.2 1.1-.5 1.5-.9.5-.4 1-.8 1.5-1.3.5-.4 1-.9.9-1.6 0-.3.2-.6.6-.7.1-.1.3-.1.5-.1.8-.2 1-.5 1-1.2-.1-.6-.2-1.3-.3-1.9-.1-.5-.3-.9-.7-1.2-.2-.2-.6-.3-.9-.1-.5.4-1.1.7-1.6 1.1-1.3 1-2.6 1.8-4.2 2.5-.9.4-1.9.9-2.8 1.3l-2.1.9c-.3.1-.6.2-.9.4-1.4.7-2.8 1.1-4.3 1.6-1.8.5-3.6 1.1-5.4 1.6-1.3.4-2.6.6-4 .7-1 .1-1.9.2-2.9.4-.7.1-1.4.2-2.1.2-1.9.1-3.8.1-5.7.2-.7 0-1.4-.1-2.1-.2-.9-.2-1.8-.4-2.7-.5-.1 0-.2 0-.3-.1-1.9-.7-4-.7-6-1.4-.3-.1-.5-.1-.8-.2-1.3-.2-2.5-.5-3.8-.9-.6-.2-1.2-.3-1.7-.4-2.3-.6-4.6-1.1-6.9-1.8-.9-.2-1.7-.7-2.6-1-.5-.2-1-.4-1.5-.5-.2-.1-.4-.1-.6 0-.1 0-.3.2-.4.3-.1.4-.1.7-.1.7v1zm31.5 16.2c-.1 1.5.2 2.9.4 4.3.1.5.2 1.1.2 1.6 0 1.3.1 2.7.1 4 0 .6 0 1.2.1 1.8.2 1.1.2 2.1.3 3.2.2 1.7.3 3.3.4 5 .1 1.1.2 2.1.3 3.2.1.9.2 1.8.2 2.7 0 1 .1 2 .2 3.1.1.5.1 1.1.1 1.6 0 1.1.1 2.1.2 3.2.2 1.4.3 2.8.4 4.2 0 .4.1.9.2 1.3.5 2.2.6 4.5.8 6.7.1 1.3.1 2.6.2 3.9.1 1.3.1 2.6.1 3.9 0 1.6 0 3.1.3 4.7.1 1 .2 1.9.1 2.9 0 1 0 1.9.1 2.9 0 .3.2.4.4.5.4.1.7-.1.8-.4 0-.1.1-.2.1-.3.1-.5.2-1.1.3-1.6v-.2c.2-1.6.4-3.1.1-4.7-.1-.5-.1-1.1 0-1.6.1-1.7.1-3.3 0-5 0-.8 0-1.6.1-2.4.1-1 .1-1.9.1-2.9-.1-1.2-.1-2.4 0-3.6v-2.4-1.3c.1-1.4.2-2.8.2-4.2 0-.8.1-1.6-.1-2.4-.1-.5 0-1.1-.1-1.6 0-1.4 0-2.8-.2-4.2-.1-.9-.1-1.7-.1-2.6 0-.8-.1-1.5-.2-2.3-.3-2.5-.6-5-.5-7.6v-2.4c0-.5 0-1.1-.2-1.6-.2-.6-.2-1.3 0-1.9 0-.1 0-.2.1-.3.5-1.3.5-2.7.5-4.1 0-1 0-1.9.1-2.9v-.5c-.1-1.1 0-2.1 0-3.2.1-1-.2-1.3-1.2-1.2-.3 0-.7 0-1 .1-1 .2-1.9.2-2.9.2-.2 0-.4 0-.6.1-.2 0-.5.3-.5.6 0 .4-.1.9-.1 1.3v1.8c.2.2.2.4.2.6zm-33.6 1.3c.2-.7.4-1.3.6-2 .3-1.4.9-2.8 1.6-4.1.8-1.5 2-2.7 3.6-3.3.4-.1.7-.2 1.1-.4.9-.4 1.7-.6 2.7-.5.5 0 1-.1 1.4-.1.6-.1 1.2 0 1.8.1 2 .6 4 1.3 5.8 2.5.9.6 1.8 1.1 2.7 1.7 1.8 1.1 3.2 2.6 4.6 4 .2.2.3.4.5.7.2.4.5.7.7 1.1 2.2 3.4 1.5 2.2 2.9 5.9.4 1.1.6 2.3.9 3.4.4 1.4.7 2.7 1 4.1.2 1 .4 2.1.6 3.2.1.7.2 1.5.4 2.2 0 .2.1.4.3.5 0 0 .1.1.1 0 .1 0 .2-.1.2-.2v-.5c-.1-.8-.2-1.6-.2-2.4-.1-1.1 0-2.2-.3-3.2-.1-.4-.1-.7-.1-1.1-.1-.9-.2-1.8-.2-2.7 0-.7-.4-1.3-.6-2-.1-.6-.2-1.3-.3-1.9-.1-.3-.2-.5-.3-.7-.1-.3-.3-.6-.4-.9-.8-2-1.9-3.7-2.9-5.6-.4-.7-.8-1.3-1.4-1.8l-2.6-2.6c-.4-.3-.8-.6-1.2-.7-1-.3-1.9-.7-3-.9-.2 0-.4-.1-.6-.2-1.5-.7-3.2-1-4.7-1.7-.1 0-.2-.1-.3-.1-1.6-.4-3.2-1-4.8-1.6-.9-.3-1.8-.3-2.7-.1-.8.2-1.6.5-2.4.9-.5.2-1 .5-1.2 1-.2.4-.6.6-1.1.7-.4 0-.7.1-1 .5-.2.2-.4.3-.7.4-.2.1-.4.4-.4.6v1.3c0 1.5 0 2.9-.2 4.3-.1.4-.1.9-.1 1.3 0 .3-.1.6.1.9h.1zM88.7 121c0-.4 0-.8-.1-1.1 0-.1-.1-.2-.2-.2-.2-.1-.3 0-.4.1-.6.4-.9.9-.9 1.7 0 1.3-.1 2.7.1 4 .1.6.1 1.2.1 1.8 0 1.3.1 2.6.1 3.9v.3c.1 1 .2 2 .2 3.1 0 1 .1 2 .3 3 .1.5.1 1.1.2 1.6.1 1.9.1 3.9.2 5.8 0 .5 0 1 .1 1.4.3 1.9.4 3.8.5 5.6 0 .4 0 .9.1 1.3.2 1.5.2 3 .3 4.5 0 1 0 1.9.2 2.9 0 .2.1.3.1.5 0 1.7.3 3.4.5 5.1 0 .3.1.6.1 1-.1 2.1.1 4.2.5 6.3 0 .3.2.5.3.8 0 .1.2.1.3.1.1 0 .3-.1.4-.3 0-.2.1-.3.1-.5-.1-1.1-.1-2.1-.1-3.2v-4.4c0-1.2-.1-2.5-.2-3.7-.2-1.6-.2-3.1-.2-4.7s-.2-3.2-.4-4.8c-.1-.6-.2-1.3-.3-1.9-.1-.6-.1-1.2-.1-1.8 0-1.2-.1-2.4-.2-3.5-.1-.7-.1-1.4-.1-2.1 0-.9 0-1.8-.2-2.7-.1-.4-.1-.9-.1-1.3v-.5c-.2-1.8-.3-3.5-.3-5.3 0-.3-.1-.6-.1-1-.1-.4-.1-.9-.2-1.3-.1-2.1-.4-4.3-.3-6.5v-.6c-.3-1.2-.3-2.3-.3-3.4zM48.5 78.4c-.1-.5-.1-1.1-.1-1.6 0-1-.1-2-.2-3.1-.1-.3-.1-.6-.1-1 .1-2.1-.5-4.1-.8-6.1-.1-.4-.3-.7-.5-1-.2-.3-.4-.7-.4-1.1 0-1.2-.5-2.3-1.1-3.4-1.1-2.1-2.6-4-4.4-5.6-.6-.6-1.4-1.1-2.1-1.6-.3-.2-.7-.4-1-.5-1.4-.5-2.8-1.1-4.3-1.3-1-.1-2-.3-3-.4-1.2-.1-2.5 0-3.7.2-.1 0-.2.1-.1.2l.1.1c1.4.2 2.8.6 4.3 1 .7.2 1.5.4 2.2.5 2.7.5 5 1.7 7.1 3.4l.9.9c.6.8 1.2 1.6 1.8 2.5.8 1.2 1.4 2.4 1.8 3.8.5 1.5 1.1 2.9 1.4 4.5.3 1.7.5 3.4.8 5.1.1.7.2 1.5.3 2.2 0 .5.1 1 .1 1.4v6.8c0 1.6-.1 3.1-.2 4.7-.1 1.2 0 2.5 0 3.7 0 .1.1.3.2.4 0 .1.2 0 .3.1 0 0 .1 0 .1-.1.1-.1.1-.3.1-.5 0-.8.1-1.5.1-2.3 0-1.5.2-3 .4-4.5.2-1.3.3-2.7.2-3.9 0-1 0-2.2-.2-3.5zm13.1 68c-.1.4 0 .8 0 1.1.1 1.2.2 2.5.3 3.7 0 .3.1.5.1.8 0 .2.3.3.4.2.1-.1.2-.1.2-.2 0-.6.1-1.2.1-1.8v-1.9c.1-1.2.3-2.5.5-3.7.5-3.2 1.6-6.1 3.1-9 .8-1.4 1.6-2.8 2.5-4.1l.9-1.2c1.3-1.6 2.5-3.2 3.8-4.8.1-.1.1-.2 0-.3 0-.1-.2-.1-.3-.1-.2 0-.4.1-.6.2-.6.2-1.1.4-1.7.6-.5.2-1 .4-1.3.9-.1.2-.4.4-.6.6-.2.2-.5.4-.8.6-1.7 1.3-2.9 3-4 4.8-.3.5-.5 1.1-.7 1.6-.3.9-.6 1.9-.9 2.7-.6 1.4-.8 2.9-.9 4.4v1.5c.1 1.3.2 2.3-.1 3.4zm-8.7-10.7c0 .1.2.1.3.1l.1-.1v-1.1c-.2-1.7-.3-3.3-.3-5 0-.9-.2-1.3-1.2-1.4-1.1-.1-2.1-.2-3.2-.3-.1 0-.2.1-.2.2v.3c1 .9 1.5 2.1 2.3 3.1l.3.6c.3.9.8 1.7 1.5 2.6 0 .3.2.7.4 1zm33.2-2.5v-2.4-1.1c-.2-1.4-.2-2.9-.3-4.3-.1-1.2-.3-2.3-.4-3.5 0-.3-.4-.6-.7-.5-.3.1-.6.2-.9.4-.2.1-.3.4-.2.6 1.1 1.9 1.5 3.9 1.6 6 .1 1.3.1 2.6.3 3.9.1 1.2.1 2.5.2 3.7 0 .5 0 1.1.1 1.6 0 .2.2.4.3.5 0 0 .1.1.1 0 .1 0 .2-.1.2-.2s0-.3.1-.6c-.4-1.4-.4-2.8-.4-4.1zm-23.8-1.6c0 .1.1.2.2.2s.2 0 .3-.1c.1-.1.2-.2.3-.4.8-1.3 1.8-2.5 2.8-3.8v-.1l-.2-.2c-.8.2-1.7.4-2.5.7-.4.1-.6.4-.6.9-.1.9-.1 1.7-.2 2.6-.1.1-.1.2-.1.2zm-41-7.6c0 .1.1.3.3.4h.3c.4-.7.6-1.5.8-2.2.1-.6.2-1.3.4-1.9v-.3c-.3-.4-.7-.5-1.1-.5-.1 0-.2.1-.3.2-.2.3-.3.7-.3 1.1v1.8c-.2.3-.2.8-.1 1.4zm3.2-2.6v.3c0 .1.2.1.3.1.4-.1.7-.2 1-.4l.1-.1c0-.1-.1-.2-.2-.2-.1-.1-.2-.1-.3-.1-.4-.2-.7 0-.9.4zm-4.8 20.4c.1 0 .2 0 .1-.2 0-.1 0-.2-.1-.3-.1-.1-.2.1-.1.3 0 .1.1.2.1.2zm.4-2.4c-.1 0-.1 0-.1.2 0 .1.1.2.1.2 0-.1.1-.2.1-.3-.1 0-.1 0-.1-.1zm.3-3.2c-.1 0-.1 0-.1.2 0 .1.1.2.1.2 0-.1.1-.2.1-.3 0 0 0-.1-.1-.1z"/></defs><clipPath id="SVGID_26_"><use xlink:href="#SVGID_25_" overflow="visible"/></clipPath><g class="st12"><defs><path id="SVGID_27_" d="M-.4 36.9h95v163h-95z"/></defs><clipPath id="SVGID_28_"><use xlink:href="#SVGID_27_" overflow="visible"/></clipPath><path class="st13" d="M-5 32.3H98.6v172.5H-5z"/></g></g></g></g></g><g><defs><path id="SVGID_29_" d="M544.9 522.1c.1 0 .2 0 .2.1 0 0 0 .1-.1.2-.1 0-.2 0-.2-.1.1 0 .1-.1.1-.2"/></defs><clipPath id="SVGID_30_"><use xlink:href="#SVGID_29_" overflow="visible"/></clipPath><g class="st14"><defs><path id="SVGID_31_" d="M-576.1-2259.9h1440v4613h-1440z"/></defs><clipPath id="SVGID_32_"><use xlink:href="#SVGID_31_" overflow="visible"/></clipPath><path class="st15" d="M539.9 517.1h10.3v10.3h-10.3z"/></g></g></svg>
