<svg id="Layer_1" xmlns="http://www.w3.org/2000/svg" xmlns:xlink="http://www.w3.org/1999/xlink" viewBox="0 0 229.7 306.6"><style>.st0{clip-path:url(#SVGID_2_);} .st1{clip-path:url(#SVGID_4_);enable-background:new ;} .st2{clip-path:url(#SVGID_6_);} .st3{clip-path:url(#SVGID_8_);} .st4{clip-path:url(#SVGID_10_);fill:#1D1D1B;} .st5{clip-path:url(#SVGID_12_);} .st6{clip-path:url(#SVGID_14_);enable-background:new ;} .st7{clip-path:url(#SVGID_16_);} .st8{clip-path:url(#SVGID_18_);} .st9{clip-path:url(#SVGID_20_);fill:#1D1D1B;} .st10{clip-path:url(#SVGID_22_);} .st11{clip-path:url(#SVGID_24_);fill:#1D1D1B;}</style><defs><path id="SVGID_1_" d="M128.8 0h100.9v306.6H128.8z"/></defs><clipPath id="SVGID_2_"><use xlink:href="#SVGID_1_" overflow="visible"/></clipPath><g class="st0"><defs><path id="SVGID_3_" d="M-1026-2101.4H414v4613h-1440z"/></defs><clipPath id="SVGID_4_"><use xlink:href="#SVGID_3_" overflow="visible"/></clipPath><g class="st1"><defs><path id="SVGID_5_" d="M129-.4h102v308H129z"/></defs><clipPath id="SVGID_6_"><use xlink:href="#SVGID_5_" overflow="visible"/></clipPath><g class="st2"><defs><path id="SVGID_7_" d="M175.3 194.8c0-.8.1-1.6 0-2.4-.1-1-.2-1.9 0-2.9.1-.8 0-1.6-.2-2.4-.1-.6-.1-1.1.2-1.6.2-.4.3-.7.4-1.1.2-.6.3-1.3.1-1.9-.4-1.3-.3-2.7-.4-4 0-.9-.1-1.7-.3-2.6-.3-1.2-.5-2.3-.3-3.6.1-.5-.2-.9-.4-1.3-.3-.6-.4-1.2-.2-1.9.4-1.1.6-2.2.8-3.3.2-.8.6-1.5.7-2.3.1-.7-.3-1.4-.3-2.1 0-.9.1-1.7.2-2.6.1-.5.1-.9-.1-1.4-.6-1.9-.3-3.8.1-5.7.1-.8.6-1.5 1-2.2.4-.7.6-1.4.4-2.3-.3-1.3-.3-2.5-.1-3.8.1-.6 0-1.1-.3-1.6-.8-1.4-.9-2.9-.6-4.4.2-1.1.2-2.2 0-3.3-.4-1.7-.4-3.5.2-5.2.5-1.6.4-3.1-.2-4.7-.5-1.2-.8-2.4-1.3-3.6-.4-1.1-.5-2.2.1-3.3.4-.8.5-1.7.5-2.6 0-1.8-.3-3.7-.1-5.5 0-.2 0-.5-.1-.7-.4-1.6-.3-3.2 0-4.8.2-1.1.3-2.2.1-3.3-.5-2.4.1-4.6.7-6.9.1-.5.3-1.1.5-1.6.1-.5.1-.9-.1-1.4-.2-.4-.4-.7-.5-1.1-.3-.8-.4-1.7-.2-2.6.1-.5.2-.9.4-1.4.1-.3.1-.7-.1-.9-1.2-1.4-1.1-2.9-.7-4.5.2-.6.3-1.3.1-1.9-.2-1.3-.1-2.6.3-3.8.2-.6.3-1.3.1-1.9-.3-.9-.2-1.7.1-2.6l.3-.9c.1-.4.1-.8 0-1.2-.5-1.1-.5-2.2-.1-3.3.3-.7.2-1.4-.2-2.1-.2-.4-.3-.9-.4-1.4-.3-1.1-.2-2.2.3-3.3.1-.1.1-.3.2-.4.7-1.1.7-2.3.5-3.5-.1-.4-.2-.8-.2-1.2 0-.7.1-1.5-.1-2.1-.1-.6-.6-1.1-.9-1.7-.3-.8-.3-1.6-.1-2.4.2-.9.2-1.7-.2-2.6-.4-.7-.4-1.5-.4-2.3 0-.7.1-1.4.5-2.1.2-.4.5-.8.7-1.3.1-.3.3-.6.2-.9-.2-1.3 0-2.5.3-3.8.2-.6.1-1.1-.1-1.6-.4-1-.3-2 .1-3 .4-.9.4-1.9.1-2.8-.3-.7-.2-1.4 0-2.1 0-.2.1-.3.1-.5.7-1.9.7-2.5 0-4.2-.4-1-.2-1.9.2-2.8.1-.2.2-.4.4-.6.3-.5.4-1 .1-1.6-.2-.4-.4-.9-.6-1.3-.2-.6-.3-1.2-.4-1.9-.1-.5 0-1 .2-1.4.8-1.6 1.8-3 3.5-3.9 1.7-.8 2.6-2.3 3.3-3.9.2-.4.3-.9.6-1.3s.7-.7 1.2-.6c.4.1.8.3.9.7.2.4.3.7.3 1.1.1.9.1 1.8.1 2.6 0 1.1 0 2.2.3 3.3.2.6.2 1.3 0 1.9-.3 1.3-.3 2.5 0 3.8.2.8.2 1.6-.3 2.3-.5.7-.6 1.5-.5 2.3.1.6.1 1.3.2 1.9.1.6.1 1.3-.2 1.9-.5 1.2 0 2.5-.2 3.8.7 1.2.4 2.5.5 3.7 0 .6.1 1.3.3 1.9.4 1.2.4 2.4.3 3.6 0 .5-.1 1-.1 1.4 0 .4 0 .8.1 1.2.3.9.3 1.7.2 2.6-.2 1.4-.3 2.9.2 4.3.5 1.5.6 3 .1 4.5-.5 1.4-.1 2.9-.2 4.3 0 .4.3.9.4 1.3.3.8.4 1.6 0 2.3-.5 1-.6 2-.3 3 .3 1.1.4 2.2 0 3.3-.1.4-.1.8 0 1.2.5 2 .7 3.9.6 5.9 0 1.2 0 2.4.3 3.6.3.9.2 1.9-.1 2.9-.1.5-.3 1.1-.5 1.6-.2.7-.3 1.4-.3 2.1.2 2.8 0 5.6-.5 8.4-.3 1.3-.3 2.6.1 3.8.6 1.9.1 3.6-.3 5.4l-.3.9c-.2.5-.2 1.1-.1 1.6.3 1.8.3 3.5-.2 5.2-.1.5-.2.9-.1 1.4.1 1.4.1 2.9.2 4.3 0 .9.1 1.8.1 2.6v1.7c-.2 1.3-.2 2.6.1 3.8.3 1.4.2 2.7-.3 4-.3.9-.3 1.7.1 2.6.8 1.8.6 3.8.4 5.7 0 .2-.1.5-.2.7-.5 2.1-.7 2.1.2 4.2.7 1.7.8 3.6.1 5.4-.4.9-.4 1.7 0 2.6.5 1.4.5 2.8.2 4.2-.1.5-.3.9-.3 1.4-.1.5-.2 1.1-.2 1.7 0 1.5.1 3 .1 4.6 0 .6.1 1.1.5 1.6.7.9.7 1.9.6 3-.2 1.4-.5 2.8-1.3 4.1-.7 1.1-.5 2.3-.2 3.5.2.7.5 1.4.7 2 .3 1.2.4 2.4.1 3.6-.3.9-.2 1.7.1 2.6.4 1.1.5 2.2.5 3.3 0 .8-.1 1.6-.4 2.3-.6 1.2-.7 2.4-.6 3.7.1 3.8.1 7.7.1 11.5 0 .6 0 1.3-.2 1.9-.2 1.1-.8 1.9-1.9 2.3-.2.1-.5.2-.7.3-.5.2-.6.7-.3 1.2.1.2.3.4.4.6.2.3.4.5.5.8.5 1 .6 2 .2 3-.4 1-.9 1.9-1.8 2.5-.2.2-.5.5-.5.8-.2 1.4-.3 2.9-.1 4.3.2 1 .5 2 1.3 2.8.2.2.4.5.6.7.2.4.3.8.1 1.2-.2.4-.4.9-.6 1.3-.2.4-.1.8.4 1 .5.3 1 .5 1.5.8.5.3.8.8.9 1.3.1.4.1.8.1 1.2 0 1.9.3 3.8.6 5.7.1.4.2.8.2 1.2.2.9.5 1.7 1.3 2.2.6.4.9 1.1 1.2 1.8.2.5.3 1.1.5 1.6.1.4.4.7.8.9 2 .7 3.5 2.2 5.2 3.4.3.2.6.5.9.8.6.8 1.2 1.7 1.8 2.5.5.8.9 1.7 1 2.7.1.9.7 1.6 1.5 2 .6.3 1.3.7 1.9 1 .3.1.6.2.9.4 3.4 1.5 6.4 3.5 8.9 6.3 1.2 1.3 2.3 2.6 3.3 4.1 1.3 1.9 2.8 3.7 4.3 5.5 1.4 1.7 2.7 3.4 3.5 5.4.3.7.7 1.4 1.1 2.1.9 1.6 1.5 3.3 2.2 5.1.2.6.4 1.2.5 1.8.7 4 1.4 8 2.2 12 .1.6.2 1.3.2 1.9.1 2 .4 4 .8 5.9.1.4.1.8.1 1.2 0 .7-.6 1.4-1.3 1.5-.5.1-1 .1-1.4.1h-3.8c-1.3 0-2.6 0-3.8-.3-.8-.2-1.6-.2-2.4-.2-4.5-.1-8.9-.4-13.4-.8-2.7-.2-5.4-.2-8.1.1-2.8.3-5.6.7-8.4.6-1.6-.1-3.2 0-4.8 0-.6 0-1.1 0-1.7-.1-1.4-.2-2.7-.2-4.1-.1-1.3.1-2.7.1-4.1-.1-1.7-.2-3.3-.2-5 .1-.5.1-1.1.2-1.7.2-1.8 0-3.5.4-5.2.7-.8.2-1.6.3-2.4.5-1.6.3-3.2.4-4.8.1-1.4-.2-2.9-.2-4.3 0-1.1.2-2.2.2-3.3.2-1.2 0-2.4.1-3.6.2-3 .3-6 .8-9.1.8-.7 0-1.4 0-2.2-.1-.6-.1-1.2-.3-1.7-.8-.3-.3-.5-.9-.4-1.3 0-.1 0-.2.1-.2 1-1.5 1.2-3.3 1.3-5 .1-1.9.5-3.6 1-5.4.3-.9.4-1.9.6-2.8.4-2.4 1.1-4.7 2-6.9.1-.4.4-.7.5-1.1.6-1.9 1.4-3.7 2.2-5.6.9-2 1.7-4.1 2.6-6.2.2-.4.4-.7.6-1.1.1-.2.3-.4.4-.6.6-1.1 1.2-2.3 1.9-3.3.7-1.1 1.6-2 2.4-3 .3-.4.6-.8.9-1.1 1.3-1.2 2.7-2.3 4-3.5.4-.4.9-.7 1.3-1.1 2-2 4.3-3.6 6.8-4.8 1.4-.7 2.3-1.6 2.6-3.1.2-1.1.7-2.1 1-3.2.1-.4.4-.7.6-1 .3-.5.7-.9 1-1.4.6-1.1 1.5-1.9 2.5-2.5 1.3-.8 2.5-1.7 3.9-2.3.3-.1.5-.4.5-.7 0-.6 0-1.1.1-1.7.1-.6.4-1.1.9-1.4.3-.2.6-.3.8-.5 1.1-.5 1.5-1.3 1.3-2.5-.2-1.3-.3-2.6-.6-3.8-.3-1.5 0-2.9.3-4.2.2-.6.6-1 1.1-1.2l1.5-.6c.4-.2.7-.4 1-.7.1-.1.3-.4.2-.6-.1-.5-.3-1.1-.5-1.6-.1-.4 0-.8.3-1.1.1-.1.2-.3.3-.4 1-.7 1.3-1.6.9-2.7-.3-.9-.1-1.9 0-2.9 0-.4.1-.8.2-1.2 0-.4-.1-.8-.4-1.1-.4-.4-.9-.7-1.3-1-1.4-1.3-1.4-3.4 0-4.7.5-.4 1.1-.7 1.4-1.3.1-.1.1-.3 0-.5 0-.1-.2-.3-.3-.3-.4 0-.8.1-1.2 0-.7 0-1.2-.5-1.3-1.2 0-.2-.1-.5-.1-.7.1-1.7.1-3.7 0-5.7zm7.9-181.1c-.7.5-1.5 1-2.1 1.5-.6.5-1.2 1.1-1.7 1.6-.3.3-.4.7-.4 1.1 0 .3.4.6.7.5.1 0 .2 0 .2-.1 2-1.2 2.5-1.8 3.1-4 .1-.1.1-.4.2-.6zm.5 29.3c-1.5.5-2.8 1.4-4.3 2-.8.3-1.3 1.1-1.6 1.9-.1.1 0 .3-.1.5 0 .2.4.6.6.6.6-.1 1.1-.3 1.5-.6 1.5-1.2 3-2.3 3.7-4.2l.2-.2zm-.5-12c-.9.4-1.9.8-2.8 1.4-1.1.6-1.8 1.6-1.9 2.9 0 .5.5.9.9.8 1.2-.4 2.1-1.1 3-1.8.3-.3.5-.6.5-1 .2-.9.2-1.6.3-2.3zm-5.3 72c.7-.1 1.2-.2 1.7-.7.6-.5 1.2-1.1 1.8-1.5 2.3-1.6 2.8-3.9 2.9-6.5 0-.1-.3-.2-.4-.2-1 .7-1.9 1.5-3 2-1.3.7-2.1 1.6-2.6 2.9-.3.6-.5 1.2-.5 1.8.1.8.1 1.5.1 2.2zm-44.1 196.2v1.9l.3 2.1c.1.4.4.7.9.7.7 0 1.4-.1 2.1-.1.6-.1 1.3-.2 1.9-.2 2.1-.1 4.2-.1 6.2-.4.3-.1.6 0 1 0 1.6 0 3.2-.1 4.8-.1 1.1 0 2.2 0 3.3.2 2 .4 4 .3 5.9-.3 1.1-.3 2.3-.6 3.5-.8 2.1-.3 4.3-.4 6.4-.6.7-.1 1.4-.1 2.2 0 2.6.2 5.3.1 7.9.1 1 0 1.9 0 2.9.2.6.1 1.3.1 1.9 0 2-.2 4-.3 6-.2 1.7 0 3.4 0 5-.3 1.3-.2 2.5-.3 3.8-.3h2.6c2.6 0 5.1 0 7.7.4.5.1 1.1.1 1.7.1h2.2c2.6.1 5.1 0 7.7.4 1.2.2 2.5.2 3.8-.1 1.4-.3 1.8-.7 1.8-2.1v-1c0-1.6-.3-3.2-.5-4.8-.3-2.2-.5-4.5-1-6.6-.2-.9-.4-1.9-.5-2.8-.5-2.9-1.4-5.6-2.8-8.1-.3-.5-.5-1-.8-1.5-.6-1.4-1.4-2.7-2.4-3.9l-2.4-3c-.6-.8-1.2-1.5-1.7-2.3-1.1-1.7-2.3-3.2-3.6-4.8-1.9-2.3-4.2-4.1-6.8-5.6-2.2-1.2-4.5-2-6.8-3-1.2-.5-2.5-.6-3.8-.4-.7.1-1.4.2-2.1.2-1.5 0-3 .1-4.6.1-1.8 0-3.7.1-5.5-.1-1.6-.1-3.2-.4-4.8-.1-.4.1-.8 0-1.2-.1-.3 0-.7-.1-1-.1-1.7.3-3.5.2-5.2.8-1.3.4-2.7.6-4 .5h-1c-1-.1-1.9.2-2.8.6l-3.6 1.8c-1.3.7-2.5 1.4-3.6 2.4-.2.2-.4.3-.5.5-2 1.6-4 3.2-5.8 5l-1 1c-1.7 1.9-3.3 3.9-4.4 6.2-.1.3-.3.6-.5.8-.6.9-1.1 2-1.4 3-1 2.6-2.3 5.1-3.1 7.8l-.3.6c-.6 1.2-1.1 2.5-1.4 3.8-.4 1.8-.8 3.6-1.3 5.3-.7 2.6-1.1 4.9-1.3 7.2zm58.4-49.7c.5.1 1 .1 1.4 0 .6-.1 1.3-.2 1.9-.3.6-.1.9-.6.7-1.3-.3-1-.8-1.9-1.5-2.7-1.3-1.5-2.9-2.8-4.7-3.6-1.2-.6-2.6-.8-3.8-1.3-.7 0-1.5-.1-2.1.1-1.4.3-2.9.3-4.3.3-1.6.1-3.2.1-4.8.1-2 0-3.7.8-5.5 1.5-.2.1-.4.3-.6.4-.7.5-1.4 1.1-2 1.7-1.4 1.2-2.2 2.7-2.7 4.4-.2.6.2 1.3.9 1.5 1.3.3 2.7.4 4 0 1.4-.4 2.8-.7 4.2-.7.4 0 .8-.1 1.2-.1.7-.1 1.4-.2 2.1-.1h1.4c1-.1 2.1 0 3.1.1.9.1 1.8.2 2.6.2 2.4-.1 4.8.1 7.2-.2h1.3zm-13.8-14.7c1.2-.1 2.3-.2 3.3-.3.5-.1.9-.2 1.4-.4.5-.2.8-.6.7-1.1-.3-2.2-.6-4.4-.6-6.7 0-.2 0-.5-.1-.7l-.3-.6c-.5-.7-1.2-1-2-1.2-.5-.1-.9.2-1.3.4s-.9.4-1.3.6-.8.5-1.2.7c-.6.4-.9 1.1-1 1.8-.1.9 0 1.7.3 2.6.3 1.3 1 2.5.8 3.9 0 .3.3.6.6.7.1.2.5.3.7.3zm4.8-42.6v-5.3c0-1-.7-1.4-1.7-1.1-.8.2-1.5.5-2.3.8-.8.3-1.1.9-1.2 1.6-.1 1-.2 2.1-.1 3.1.1 1.2.1 2.4 0 3.6-.2 1.1-.1 2.2.2 3.3.3.9.6 1.3 1.5 1.2.6 0 1.3-.1 1.9-.1.8-.1 1.5-.8 1.6-1.6.1-.5.1-1 .1-1.4v-4.1zm.3-78.1c0-.3-.1-.8-.2-1.4-.1-.4-.6-.6-.9-.4-2.2 1.8-3.7 4.1-4.6 6.8-.2.5-.2.9-.1 1.4.1.3.2.6.4.8.1.2.5.1.8-.2 1.2-1.1 2.4-2.3 3.6-3.5.5-.5.8-1.2.9-1.9.1-.4.1-.9.1-1.6zm1.4-66.6c0-.2 0-.4-.1-.4-.1-.1-.3 0-.4.1-1.3 1.2-2.7 2.5-4.4 3.3-.5.2-.8.7-1.1 1.2-.3.5-.3 1.1 0 1.6.2.4.7.7 1.2.6.6-.2 1.2-.3 1.8-.5.7-.2 1.3-.7 1.6-1.3.3-.6.5-1.2.7-1.8.2-1 .4-1.9.7-2.8zm-1.1-10c0 .1 0 0 0 0 0-.2-.1-.4-.1-.5 0-.1-.4-.1-.7 0-1.2.6-2.4 1.3-3.5 1.9-.5.3-1 .6-1.4.8-.8.5-1.1 1.3-1 2.2.1.5.6.9 1 .7 1.5-.5 2.9-1.4 4.2-2.2.8-.5 1.3-1.2 1.3-2.1.1-.2.1-.4.2-.8zm-5.3 100.6c0 .1 0 .3.1.4 0 .1.1.2.1.2.1 0 .4 0 .4-.1.7-.8 1.4-1.5 2.1-2.3 1.4-1.5 2.1-3.4 2.4-5.4 0-.2 0-.5-.1-.7 0-.1-.3-.2-.4-.2-2.1 1.3-3.3 3.2-4.1 5.4-.2.9-.5 1.8-.5 2.7zm-.6-26.8v.8c0 .1.1.3.2.4.1 0 .3 0 .4-.1l1.2-1.5c1.1-1.8 2.3-3.6 3.4-5.5.2-.3.4-.7.5-1.1.1-.3 0-.6 0-.9 0-.1-.2-.2-.4-.2-.4 0-.8.3-1 .6-1 1.2-2 2.4-3 3.7-.6.7-.9 1.5-1.1 2.4-.2.4-.2.9-.2 1.4zm5.2-33.5c-.2 0-.8.2-1.4.3l-1.2.3c-1 .3-1.9.9-2.5 1.8-.4.5-.5 1.1-.4 1.8.1.3.5.5.7.4 1.6-1 3.2-1.8 5-2.3.3-.1.7-.4.9-.7.4-.6.8-1.2.9-1.9 0-.1 0-.1-.1-.2-.1 0-.1-.1-.2-.1-.4.1-.8.3-1.7.6zm.7-70.1c-.1-.2-.2-.6-.3-1 0-.1-.3-.2-.4-.2-.9.3-1.4 1-2.2 1.5-.8.5-1.3 1.2-1.8 1.9-.6.8-.6 1.7.1 2.6.2.3.8.4 1.1.2 1.1-.8 2.1-1.8 2.9-2.8.4-.6.6-1.3.6-2.2zm-.7 147.7c0-.3-.1-.4-.1-.4 0-.3-.4-.6-.7-.4-2.2 1.1-3.3 3.1-4.3 5.2-.2.3-.1.8-.1 1.2 0 .4.5.7.9.4.6-.4 1.2-.8 1.7-1.2.6-.4 1.1-.9 1.4-1.6.3-.6.6-1.1.8-1.7.3-.6.4-1.1.4-1.5zm.7-71.4c0-.2 0-.3-.1-.5-.1-.3-.4-.6-.7-.6-.3 0-.7 0-.9.2-.9.4-1.7.9-2.4 1.6-.5.5-.9 1.1-1.3 1.7-.2.3-.3.6-.3.9-.1.2 0 .5-.1.7 0 .4.4.7.8.5 1.6-.9 3-2 4.4-3.3.5-.3.6-.7.6-1.2zm-4.4 61.2v.4c0 .1 0 .2.1.2.1.3.6.5.8.3.2-.1.4-.2.6-.4 1.2-1.1 1.9-2.5 2.6-4 .2-.6.3-1.2.5-1.8v-.5c0-.1-.1-.3-.2-.4-.1-.1-.3-.1-.4 0-1.4.8-2.2 2.2-3.1 3.5-.7.9-.9 1.7-.9 2.7zm5.8-73.2c-.1-.1-.2-.3-.3-.3-1.8.6-3.6 1.3-5.3 1.9-.7.3-1.1.9-1.4 1.6-.1.2 0 .5.1.7 0 .1.3.2.4.2.9-.2 1.9-.4 2.8-.5 1.8-.3 3-1.3 3.6-3.1.1-.1.1-.3.1-.5zm-6.8 106.2h.2c1.5-.5 2.7-1.4 3.7-2.5.6-.6 1-1.3 1.2-2.1.1-.3.1-.6.1-.9 0-.3-.4-.6-.7-.4-.9.6-1.8 1.3-2.7 1.9-.2.1-.3.3-.5.5-.5.8-1 1.6-1.4 2.5-.1.2-.1.5-.1.7-.1 0 .1.1.2.3zm5.8-116.6c0-.5 0-.6.1-.8 0-.2-.3-.5-.5-.4-1.4.5-2.8 1.2-3.8 2.3l-1.2 1.5c-.2.2-.2.6-.2.9 0 .3.4.6.6.5 1-.5 2-.9 3-1.4 1.2-.6 2-1.5 2-2.6zm0 6c.2-.5.4-.8.5-1.2 0 0 0-.1-.1-.2-.1 0-.1-.1-.2-.1-1.6.6-3.1 1.3-4.5 2.2-.4.2-.7.6-1 1-.2.2-.3.6-.4.9-.1.3.2.7.5.7 1.6-.1 3.1-.6 4.3-1.7.2-.2.4-.5.5-.8.3-.3.3-.6.4-.8zm-.9 54.9v-.5l-.3-.3h-.2c-1 .7-1.7 1.6-2.2 2.7l-1.8 3.6c-.1.1-.1.3-.2.4v.2c0 .2.1.6.3.6h.5c1.3-.7 2.1-1.9 2.7-3.2.4-1.1.8-2.4 1.2-3.5zm-4.8-28.2c.2 0 .5 0 .7-.1 1.9-.8 3.3-2.2 4.4-3.8.2-.3.2-.6.4-.9.1-.3 0-.8-.2-.8s-.5 0-.7.1c-1 .7-2 1.4-2.9 2.1-.8.7-1.5 1.5-1.9 2.4-.1.2-.1.5-.1.7 0 .1.2.2.3.3zm5.6 85.1c0-.2 0-.3-.1-.5 0-.3-.4-.5-.7-.3-.7.5-1.5.9-2.2 1.4-.3.2-.7.5-.9.8-.5.8-.9 1.6-1.4 2.5 0 .1.1.3.2.4.8.1 1.5-.3 2.3-.5 1.9-.7 2.7-1.9 2.8-3.8zm.3-18.4c-.1-.1-.1-.1-.2-.1h-.2c-.6.7-1.4 1.3-2.2 1.8-.9.6-1.8 1.2-2.7 1.9-.5.4-.9.8-1.2 1.4v.2c.1.1.3.2.4.2.9-.3 1.8-.7 2.7-.7.6 0 1.1-.3 1.4-.8.9-1.1 1.7-2.3 2-3.7v-.2zm-.2-104.4c-.1-.1-.1-.3-.2-.4-.3-.1-.6-.2-.9-.2-1.7 0-3.1.7-4.3 1.8-.2.2-.3.4-.4.6-.3.4-.4.9-.3 1.4 0 .3.4.6.7.5 1.6-.9 3.3-1.9 4.9-2.9.2-.1.3-.3.5-.5-.1-.1-.1-.2 0-.3zm-.2 90.7c0-.1 0-.2-.1-.2 0-.1-.1-.1-.2-.1h-.2c-.9 1-1.9 1.9-3.1 2.6-.9.5-1.4 1.3-1.7 2.2-.1.1 0 .3 0 .5s.4.3.6.3c.2 0 .3 0 .5-.1 2.3-.8 3.6-2.5 4.2-4.8v-.4zm-6.4 90.9v.1c1.2-.1 2.4-.1 3.6-.2 1.3-.1 2.5-.3 3.8-.4.2 0 .5-.1.7-.1l.3-.3c.1-.2-.1-.5-.3-.6-.5-.2-1-.1-1.4.1-1.4.6-2.9.7-4.4.6-.9-.1-1.7-.2-2.6-.2-.7 0-1.4-.1-2.1 0-.2 0-.4.2-.6.3-.1 0-.1.1-.1.2s.1.3.2.4c.2.1.4.2.7.2.6 0 1.4-.1 2.2-.1zM183 19.8l-.3-.3c-.1 0-.3 0-.5.1-1.6 1-2.9 2.2-3.5 4.1-.1.2-.1.5-.1.7 0 .1.2.2.3.3 0 0 .2.1.2 0 .7-.4 1.3-.8 2-1.3 1.2-.8 1.6-2.1 1.9-3.4.1 0 0-.1 0-.2zm-.8 6.4h-.5c-.6.3-1.1.6-1.6 1-.8.6-1.3 1.3-1.5 2.3 0 .2.2.5.5.4 1.4-.2 2.5-.9 3.2-2.1.3-.4.3-.9.2-1.4 0 0-.2-.1-.3-.2zm-.5 142.7c-.1-.2-.2-.4-.3-.4-.3-.1-.6-.1-.9-.1-.8.2-1.5.7-2 1.2s-.8 1.2-.8 1.9c0 .1.2.3.3.3.9-.3 1.8-.7 2.5-1.3.4-.3.7-.7 1-1 .1-.1.2-.4.2-.6zm-1.6 38.5c.5 0 .8-.2.9-.5.2-.4.1-.8-.2-1.1-.1-.1-.3-.2-.4-.2-.5 0-.9.3-1.1.7-.1.2 0 .5.1.6.3.3.6.4.7.5z"/></defs><clipPath id="SVGID_8_"><use xlink:href="#SVGID_7_" overflow="visible"/></clipPath><g class="st3"><defs><path id="SVGID_9_" d="M128-.4h102v307H128z"/></defs><clipPath id="SVGID_10_"><use xlink:href="#SVGID_9_" overflow="visible"/></clipPath><path class="st4" d="M124.8-5h110.9v316.6H124.8z"/></g></g></g></g><g><defs><path id="SVGID_11_" d="M0 31.2h105.9v181.6H0z"/></defs><clipPath id="SVGID_12_"><use xlink:href="#SVGID_11_" overflow="visible"/></clipPath><g class="st5"><defs><path id="SVGID_13_" d="M-986-2101.4H454v4613H-986z"/></defs><clipPath id="SVGID_14_"><use xlink:href="#SVGID_13_" overflow="visible"/></clipPath><g class="st6"><defs><path id="SVGID_15_" d="M-1 30.6h107v183H-1z"/></defs><clipPath id="SVGID_16_"><use xlink:href="#SVGID_15_" overflow="visible"/></clipPath><g class="st7"><defs><path id="SVGID_17_" d="M55.8 66.4c0-6.3 0-10.7.2-15.1.1-2.1.1-4.1.2-6.2.1-1.3 0-2.6-.2-3.8-.3-2.5-.2-5-.1-7.4 0-.6.2-1.3.5-1.8.1-.3.4-.5.6-.7.6-.4 1.4 0 1.5.6 0 .3.1.6 0 .9-.3 1.9-.3 3.8-.2 5.7v10.6c0 1.5 0 3-.2 4.6-.1 1.1-.2 2.2-.1 3.3.1 1.4 0 2.9 0 4.3-.1 2.6-.3 5.3.1 7.9.2 1.3.2 2.7 0 4.1-.3 2.1-.3 4.1 0 6.2.2 1.3.2 2.6.2 3.8v8.9c0 .6 0 1.1.1 1.7.5 3.8.4 7.7.5 11.5.1 3.4 0 6.7 0 10.1v2.6c0 .7.2 1.4.8 1.9.3.2.3.6 0 .9-.7.7-.8 1.5-.8 2.4 0 1.3.2 2.6.4 3.8.1.4.2.8.3 1.1.2.7.6 1.1 1.3 1.3.6.2 1.2.3 1.8.5 1 .3 1.6 1 1.8 2 .2 1.2.3 2.4-.1 3.6-.3.9-.3 1.7-.3 2.6v4.3c0 1.1.3 1.4 1.4 1.6.3.1.6.1.9.2.9.3 1.5.8 1.8 1.8.2.6.3 1.2.5 1.9s.6 1.3 1.4 1.6c.6.2 1.2.5 1.8.8 1 .4 1.6 1.1 1.7 2.1l.6 4.5c.1.6.1 1.1.2 1.7.1.7.4 1.2 1 1.6.8.4 1.5.9 2.3 1.3 2.1 1.1 4.1 2.2 5.9 3.7 2.4 2.1 4.8 4.2 6.5 7 .6 1 1.4 1.9 2.1 2.9.8 1 1.5 2.1 2.1 3.2.5 1 1.1 2 1.7 2.9.7 1.1 1.3 2.2 1.9 3.4 1.1 2.4 2.1 4.8 2.8 7.4.4 1.2.6 2.5.8 3.7l.6 3.3c.1.5.3.9.4 1.4.2.5.5.8 1 .9.2.1.5.1.7.2.8.2 1.2.8 1.4 1.5.1.3.1.6.1.9 0 1.4 0 2.9.1 4.3 0 1-.3 1.9-.6 2.8-.4 1.2-1.4 1.8-2.6 1.7-.7-.1-1.4-.2-2.1-.4-1.8-.5-3.6-.9-5.4-.8-.6 0-1.1-.1-1.7-.1-1.5-.1-3-.2-4.5-.4-3.5-.4-7-.5-10.5-.5-.7 0-1.4-.1-2.1-.2-1.7-.2-3.3-.3-5 0-.7.1-1.4.2-2.1.2-2.6 0-5.1 0-7.7-.1-.3 0-.6 0-1-.1-1.6-.3-3.2-.3-4.8 0-.6.1-1.3.1-1.9 0-1.7-.3-3.5-.2-5.3-.3-1.5 0-3-.1-4.5-.3-1-.2-2.1-.2-3.1-.2h-4.3c-3.4-.1-6.7 0-10.1.4-1.8.2-3.7.1-5.5.2-1.1 0-2.2.1-3.4.1-3.3.3-6.5.3-9.8.1-.5 0-1 0-1.4.1-1.4.1-2.9.3-4.3.4-1.1.1-1.9-.5-2.1-1.6-.1-.3-.1-.6-.1-1 0-.5.1-1 .2-1.4.3-1.4.5-2.8.5-4.3 0-.8.3-1.5 1.1-1.6 1.2-.3 1.6-1.1 1.9-2.2.5-1.9 1.1-3.7 1.6-5.5.3-.9.7-1.8 1.2-2.6l1.2-2.1c.6-1.3 1.4-2.5 2.2-3.7.6-.9 1.2-1.9 1.7-2.9.5-1.1 1.2-2.1 2-3 1.3-1.4 2.5-2.9 3.7-4.4.3-.4.6-.8.9-1.1 2.6-2.4 4.8-5.2 7.6-7.3.8-.6 1.5-1.4 2.3-2.2.8-.8 1.7-1.5 2.7-2 1.2-.6 2.4-1.2 3.6-1.9.2-.1.4-.2.6-.4.3-.3.6-.6.5-1-.4-1.8-.2-3.5.1-5.2.1-.5 0-1.1 0-1.7 0-.5.3-.9.8-1.1.4-.2.7-.3 1.1-.4.7-.2 1.4-.3 2.1-.5.5-.1.8-.5 1-1l.3-.9c.2-.8.7-1.2 1.4-1.5.6-.2 1.2-.3 1.8-.6.4-.1.7-.5.7-.9.1-1.4.1-2.7.1-4.1v-3.1c0-1.2 0-2.4-.3-3.6-.1-.2-.1-.5-.1-.7-.1-.7.3-1.5 1-1.8.9-.4 1.8-.6 2.7-.9.5-.1.9-.1 1.4-.2.5-.1.9-.2 1.4-.4.6-.2 1-.6 1-1.2 0-.4 0-.8.1-1.2.1-1 .2-1.9.3-2.9.1-.8.1-1.6.1-2.4v-5.3c0-3.6.1-7.2.4-10.8.1-1.5.1-3 .1-4.6v-5.3-1.4c-.4-2.6-.3-5.3-.4-7.9-.1-2.5 0-5-.3-7.4-.1-.7-.1-1.4-.1-2.2-.1-6.6-.1-13.1 0-19.7.1-4.2.2-8.5.1-12.7v-1c.4-2.6.2-5.3.2-7.9 0-1.3.2-2.5.3-3.8.1-.6.7-1.1 1.4-1 .6 0 1.1.5 1.1 1.1-.3 2.6-.1 5.1-.2 7.7v1c-.5 5.1-.3 10.2-.4 15.3 0 2.6 0 5.3-.2 7.9-.1 1.7-.2 3.4-.2 5 0 .6 0 1.1.1 1.7.3 1.6.2 3.2.2 4.8 0 3.1.1 6.2.2 9.4v1c.4 3.2.3 6.4.4 9.6.1 4.2 0 8.5 0 12.7 0 2.5-.1 5-.4 7.4 0 .5-.1 1-.1 1.4v9.8c0 .4.1.8.2 1.2.1.3.6.5.8.4.2-.1.4-.3.5-.4.1-.1.1-.3.1-.5.2-1.9.4-3.8.4-5.7.1-1.8 0-3.7 0-5.5V107c0-.9-.1-1.8-.2-2.6 0-.6-.1-1.3-.1-1.9-.1-4.2-.2-8.5-.2-12.7v-2.6c0-1.8 0-3.5-.2-5.3-.2-1.9-.2-3.8-.2-5.7 0-3.8.1-7.7.1-9.8zm-24.4 103l-.5.5c-.8.7-1.6 1.3-1.9 2.4l-.5.5.5-.5c.8-.7 1.6-1.4 1.9-2.4.2-.2.4-.3.5-.5zm-5.2 7.2zM65 159.8l-.5-.5-.1-.1h-.1c.1 0 .2.1.3.2.1.1.3.2.4.4zm-41.7 22.1c-.5.4-.8.9-1 1.4-.2.3-.3.6-.5 1-.1.2-.3.4-.4.6-.8 2.1-1.7 4.1-2.5 6.2-.1.2-.1.5-.2.7-.6 2.3-.7 4.7-.9 7.1 0 .1 0 .2.1.2.1.1.3.2.4.2l.2-.1c.1-.3.3-.6.3-.9.2-2.3.7-4.5 1.3-6.8.5-2.1.9-4.2 1.6-6.2.1-.3.1-.6.2-.9.2-.3.3-.6.5-1 .4-.5.7-.9.9-1.5zm57.6 1.9c0 .1.1.1.1.2 0-.1-.1-.1-.1-.2-.2-.5-.2-1.1-.4-1.6-.6-1.6-1.3-3.2-1.8-5-.1-.5-.4-1-.7-1.5-.6-1-1.2-2.1-1.9-3.1-.8-1.3-1.7-2.5-2.6-3.8-.4-.5-.8-1-1.3-1.4.4 1.2 1 2.3 1.6 3.4 2.1 3.4 4.2 6.9 5.7 10.7.4.9.8 1.6 1.4 2.3zm-46.6-20.2c-1.9.6-3.7 1.5-5.2 2.9-.9.9-1.9 1.7-2.9 2.5-.8.7-1.6 1.4-2.2 2.2-1 1.2-2.1 2.2-3.2 3.3-3.1 3-5.8 6.3-8 10.1-.7 1.2-1.4 2.5-2.2 3.7-2 2.9-3 6.2-3.9 9.5-.1.4-.1 1-.1 1.4.1 1 .5 1.3 1.4 1.3.9 0 1.8 0 2.6-.1 1.1-.2 2.2-.4 3.3-.5.5 0 .9-.3 1-.8.2-.8.3-1.6.5-2.3.2-1.2.3-2.4.5-3.6.2-1.3.5-2.5 1-3.7 1.3-2.8 2.5-5.6 3.9-8.3 1.2-2.3 2.7-4.5 4.1-6.8.3-.5.7-1.1 1.1-1.6 1.6-2.6 3.6-4.9 5.9-6.9.9-.6 1.7-1.4 2.4-2.3zm34.6-3.8c.3.3.5.6.8.9 1.2.9 2.2 2.1 3.2 3.2 1.3 1.5 2.5 3.1 3.6 4.8.3.4.6.8.8 1.2 1.6 2.3 3.3 4.5 4 7.3.1.5.4.9.6 1.3.3.7.5 1.3.8 2 .5 1.4 1 2.9 1.5 4.3.2.6.5 1.2.6 1.8.5 2.1 1.3 4.1 2.3 6 .9 1.8 1.5 3.7 1.9 5.7l.3 1.2c.2.6.6 1 1.2 1 .6.1 1.3.1 1.9.1 1.9-.1 3.8-.1 5.7.3h.7c.2 0 .6-.4.6-.7v-.7c-.3-1.5-.6-3-.8-4.5-.5-2.9-1.4-5.7-2.6-8.5-.5-1.1-1-2.2-1.7-3.2s-1.3-2.2-1.9-3.3c-.5-.9-1-1.8-1.6-2.7l-3.6-4.8c-1.9-2.4-4-4.6-6.6-6.2-1.7-1.1-3.4-2.1-5.2-3l-2.4-1.2c-.7-.4-1.4-.7-2-1.3-.6-.5-1.3-.8-2.1-1zm-1.7 40.8c2.6 0 6.6-.1 10.6.1 1.6.1 3.2-.2 4.8-.3.5 0 .9-.6.8-1-.2-1.4-.3-2.9-.8-4.2-1.6-4-2.9-8.1-4.9-12-.3-.6-.6-1.3-.9-2-1-2.3-2.3-4.6-3.6-6.7-.5-.9-1.1-1.8-1.6-2.7-1-1.8-1.9-3.7-3.3-5.3-.6-.8-1.2-1.5-2-2.1-.5-.4-1-.8-1.4-1.3-1-1.1-2.1-1.9-3.3-2.8l-1.8-1.2c-.7-.6-1.4-.8-2.2-.6-2.4.4-4.8.3-7.2.4-.9.1-1.7.2-2.6.3-.7.1-1.2.3-1.5 1-.3.6-.8.9-1.5 1.1-2.4.5-4.3 1.9-6.1 3.6-1.3 1.2-2.5 2.5-3.5 3.9-.4.6-1 1-1.5 1.6l-1.5 1.5c-3.4 4.1-6.1 8.6-8.1 13.5-.2.5-.5 1-.6 1.6-.5 2.3-1.2 4.6-1.5 7-.1 1.3-.2 2.5-.3 3.8 0 .3.1.6.2.9.2.5.7.7 1.2.7 2 0 4 0 6-.1s4-.4 6-.6c.6-.1 1.3-.1 1.9 0 2.2.3 4.4.7 6.7.8.6 0 1.1.2 1.7.2 2.2.2 4.4.6 6.7.6 4.5.2 9.1.2 15.1.3zm-60.1 2.5H5.2c-1.4.1-1.8.6-2.1 1.6-.1.5-.3 1.1-.4 1.6-.1 1 .5 1.8 1.5 1.8.5 0 1 0 1.4-.1 2.1-.4 4.3-.2 6.4 0 2.6.2 5.3-.1 7.9 0 2.4-.4 4.8-.3 7.2-.4 1.2 0 2.4-.1 3.6-.2 1.1-.1 2.2-.2 3.3-.2 1.7 0 3.4.1 5 .1 2.2-.1 4.3.2 6.4.5 1.4.2 2.7.3 4.1.3 1 0 1.9-.1 2.9 0 1.4.1 2.9.1 4.3 0h2.6c2.9 0 5.8.1 8.6.1 1.4 0 2.9-.1 4.3-.2 1.1-.1 2.2-.1 3.3 0 2.4.3 4.8.2 7.2.1.7 0 1-.3 1.2-1 .1-.5.2-.9.3-1.4.4-1.1 1.2-1.6 2.4-1.5.2 0 .3 0 .5.1.9.2 1.4.9 1.2 1.8-.1.5-.3 1.1-.5 1.6-.1.4.2.8.6.9 2.5.3 4.9.7 7.4.6.8 0 1.6.1 2.4.2 1.1.1 2.2.3 3.3.5.5.1 1.1-.3 1.3-.9.1-.2.2-.5.2-.7 0-1.2 0-2.4-.3-3.6-.1-.6-.6-.9-1.2-1.1-.3-.1-.6-.1-1-.1-1.4 0-2.7-.2-4.1-.4-2.7-.3-5.4-.3-8.1.2-.6.1-1.1.2-1.7 0-1.1-.4-2.2-.4-3.3-.4H59.6c-.9 0-1.8 0-2.6-.1-1.5-.2-3-.3-4.5-.3-2.1 0-4.1-.1-6.2-.4-2.1-.3-4.1-.6-6.2-.6-.7 0-1.4-.1-2.1-.2-2.2-.3-4.5-.4-6.7 0-.6.1-1.3.1-1.9.2-1.6.1-3.2.1-4.8.3-1.7.2-3.3.3-5 .3-2.5.1-4.9.4-7.4.4-.5 0-1 .1-1.4.2-1.1.4-2.4.4-3.7.4zm45.6-58.3c1.9.1 3.8-.2 5.7-.5.8-.1 1.6-.4 2.3-.6.5-.2.8-.6.8-1.1 0-.3.1-.6.1-1 0-1.8.1-3.7.4-5.5.1-.8.1-1.6.1-2.4 0-.9-.6-1.5-1.4-1.6-.5-.1-1-.1-1.4-.1-2.2.1-4.5.3-6.6.8-1.2.3-2.3.5-3.5.8l-.9.3c-.3.1-.5.4-.5.7-.1 1-.2 2.1-.2 3.1 0 1.5-.1 3 0 4.5 0 1.4.5 2 1.9 2.3.5.1 1.1.1 1.7.2.4.2.9.1 1.5.1zm-8.2 7.4c-1.6-.1-3.2.3-4.9.5-.7.1-1.2.5-1.4 1.2-.2.8-.5 1.5-.4 2.3 0 .4.1.8.2 1.2.1.5.7.8 1.1.7 1.7-.3 3.5-.3 5.2-.7 2-.4 4.1-.7 6.2-.7.8 0 1.6-.1 2.4-.2 2-.2 4-.4 6-.5h.7c1.1 0 2.2 0 3.3-.1 1.3-.1 2.6-.1 3.8.2 1 .2 2 .5 3 .7.3.1.6.1.9.2.3.1.7-.2.7-.5 0-.2.1-.5 0-.7-.3-.9-.5-1.8-.9-2.7-.1-.4-.5-.6-.8-.8-.9-.4-1.8-.6-2.8-.6-1 0-1.9-.1-2.9-.2-1-.2-1.9-.2-2.9-.2-2.2 0-4.3 0-6.5.1-2.1.1-4.1.3-6.2.3-.5 0-1 .1-1.4.2-.5.3-1.4.3-2.4.3zm7.9-4.8h-3.3c-.7 0-1.4.1-2.1.5-.7.5-1.6.8-2.4 1-.1 0-.2.2-.3.3-.1.1.3.4.5.4.6 0 1.1 0 1.7-.1 1.2-.3 2.4-.3 3.6-.3 1.3 0 2.5-.1 3.8-.2 1.7-.1 3.3-.2 5-.2 2 0 4-.4 5.9-.6.2 0 .3-.1.4-.2.1-.1.2-.3.2-.4 0-.1-.1-.3-.2-.4-.2-.1-.4-.2-.7-.2-1.9-.2-3.8-.3-5.7.1-2.2.4-4.3.5-6.4.3z"/></defs><clipPath id="SVGID_18_"><use xlink:href="#SVGID_17_" overflow="visible"/></clipPath><g class="st8"><defs><path id="SVGID_19_" d="M0 30.6h106v183H0z"/></defs><clipPath id="SVGID_20_"><use xlink:href="#SVGID_19_" overflow="visible"/></clipPath><path class="st9" d="M-5 26.2h115.9v191.6H-5z"/></g></g></g></g></g><g><defs><path id="SVGID_21_" d="M18.2 195.6c1 0 1.6.8 1.4 1.7-.2.7-.5 1.3-1 1.8s-1.3.6-2 .2c-.6-.4-1-1.1-.8-1.8.4-1.2 1.2-1.8 2.4-1.9"/></defs><clipPath id="SVGID_22_"><use xlink:href="#SVGID_21_" overflow="visible"/></clipPath><g class="st10"><defs><path id="SVGID_23_" d="M-986-2101.4H454v4613H-986z"/></defs><clipPath id="SVGID_24_"><use xlink:href="#SVGID_23_" overflow="visible"/></clipPath><path class="st11" d="M10.8 190.6h13.8v14H10.8z"/></g></g></svg>
