<svg id="Layer_1" xmlns="http://www.w3.org/2000/svg" xmlns:xlink="http://www.w3.org/1999/xlink" viewBox="0 0 262.6 279.8"><style>.st0{clip-path:url(#SVGID_2_);} .st1{clip-path:url(#SVGID_4_);enable-background:new ;} .st2{clip-path:url(#SVGID_6_);} .st3{clip-path:url(#SVGID_8_);} .st4{clip-path:url(#SVGID_10_);fill:#1D1D1B;} .st5{clip-path:url(#SVGID_12_);} .st6{clip-path:url(#SVGID_14_);enable-background:new ;} .st7{clip-path:url(#SVGID_16_);} .st8{clip-path:url(#SVGID_18_);} .st9{clip-path:url(#SVGID_20_);fill:#1D1D1B;} .st10{clip-path:url(#SVGID_22_);} .st11{clip-path:url(#SVGID_24_);fill:#1D1D1B;} .st12{clip-path:url(#SVGID_26_);} .st13{clip-path:url(#SVGID_28_);fill:#1D1D1B;}</style><defs><path id="SVGID_1_" d="M0 26.4h83.4v199.9H0z"/></defs><clipPath id="SVGID_2_"><use xlink:href="#SVGID_1_" overflow="visible"/></clipPath><g class="st0"><defs><path id="SVGID_3_" d="M-1301.4-2510.3H437v5569.1h-1738.4z"/></defs><clipPath id="SVGID_4_"><use xlink:href="#SVGID_3_" overflow="visible"/></clipPath><g class="st1"><defs><path id="SVGID_5_" d="M-1.2 26.1h85.7v200.4H-1.2z"/></defs><clipPath id="SVGID_6_"><use xlink:href="#SVGID_5_" overflow="visible"/></clipPath><g class="st2"><defs><path id="SVGID_7_" d="M49.6 226c-.5 0-1.1 0-1.7.1-1.4.3-2.9.3-4.3.2h-3.5c-1.2 0-2.3 0-3.5-.2-.9-.1-1.7-.2-2.6-.2-1.7-.1-3.5-.2-5.2-.1-3.2.1-6.3-.6-9.4-1.3-1.4-.4-2.8-.8-4.2-.9-3-.9-6.1-1.8-9.1-2.8-1.3-.4-2.4-1.2-3.1-2.5-.3-.5-.6-1-1-1.4-1.1-1.3-1.6-2.9-1.9-4.5-.2-.7-.1-1.4.4-1.9 1.3-1.3 1.5-2.8 1.2-4.5-.4-2.6-.1-5.2.7-7.7.6-1.8 1.2-3.7 1.9-5.5.5-1.3 1.3-2.4 2.2-3.4.7-.9 1.5-1.8 2.3-2.6.4-.4.8-.8 1.3-1.2 1.8-1.5 3.6-2.9 5.7-3.9.6-.3 1.2-.7 1.8-1 1.4-.8 2.9-1.6 4.3-2.4l1.8-.9c.6-.3 1.1-.8 1.1-1.6 0-1.1.4-2.1 1.2-2.9.3-.3.5-.6.6-1 .3-.6.8-1.1 1.4-1.4.8-.5 1.6-1.1 2.4-1.6.5-.4.7-.9.7-1.5v-1.2c-.2-2.6-.5-5.2-.7-7.8-.1-1 0-1.9.3-2.9.2-.8.6-1.4 1.3-1.9 1.1-.9 2.2-1.8 3.4-2.7.3-.3.5-.6.5-1 0-.6-.1-1.2-.2-1.7-.3-1.7-.1-3.3.9-4.7.1-.2.2-.3.3-.5.6-.8.9-1.7.9-2.7 0-4 .7-7.9.6-11.8-.1-1.5.2-3.1.3-4.6 0-1 .1-1.9 0-2.9-.4-3.8-.5-7.5 0-11.3.1-.4.1-.8.1-1.2 0-3.3.6-6.5 1-9.8.2-1.6.2-3.3.2-4.9 0-1.6-.1-3.3 0-4.9 0-2.4-.4-4.8-.7-7.2-.3-2.6-.7-5.2-1.1-7.7-.1-.5 0-1 0-1.4.3-4 .3-7.9.1-11.9 0-.4 0-.8-.1-1.2-.5-3.1-.5-6.2-.5-9.2 0-5.3-.1-10.6-.1-15.9 0-1.9 0-3.9.1-5.8 0-.4.1-.8.2-1.1.2-.6.9-1.1 1.6-1 .6.1 1.1.6 1.1 1.2-.1 1.2-.3 2.5-.3 3.7 0 4-.1 7.9.4 11.9.1 1.2.2 2.5.1 3.8-.2 1.9-.1 3.8 0 5.8.1 3.7.1 7.3.2 11 0 1.7.2 3.5.2 5.2 0 1.6-.2 3.3-.3 4.9-.1 1.8.1 3.7.4 5.5.7 3.6 1 7.3.9 10.9 0 .7.1 1.4.2 2 .3 2.1.3 4.2 0 6.3-.1.9-.2 1.7-.2 2.6-.1.8-.1 1.5-.1 2.3-.7 6-.6 11.9-.5 17.9.1 4.1-.1 8.1-.1 12.2v3.5c0 .7.1 1.4 0 2-.1 1.2 0 2.3 1.2 3 1.6 1.6 2.6 3.6 2.9 5.9 0 .2 0 .4.1.6.3 1.7 1.1 2.5 2.9 2.6.8.1 1.5.4 2 .9 1.1 1 1.6 2.4 1.9 3.8.2.8 0 1.5-.6 2.1-.3.3-.6.5-.8.8-.1.1 0 .4.1.5.8.4 1.9.3 2.4-.3.3-.5.6-1 1-1.4.7-.9 2.2-.7 2.7.3.2.4.3.7.4 1.1.1 1.2.3 2.5.3 3.7 0 .5-.2.9-.5 1.3-.4.5-.9.7-1.5.6-.6-.1-1.1-.3-1.6-.7-.3-.3-.5-.6-.8-.8-.4-.3-.9-.4-1.4-.3-.5.1-1 .5-1 .9-.1 1.1.1 2.1.5 3.1.1.3.3.5.5.6 1.2.6 2.2 1.5 3.2 2.5.4.4.9.7 1.4.9 1.6.8 2.7 2.1 3.2 3.9.1.4.2.8.4 1.1.2.3.5.6.8.8.3.2.7.3 1.1.5 1 .3 1.9 1 2.8 1.5 3 1.9 4.7 4.8 6.3 7.8.9 1.7 1.7 3.5 2.2 5.3l1.2 3.3c1 3.2 2.3 6.4 2.9 9.7.1.8.6 1.4 1.3 1.9.9.6 1.8 1.1 2.7 1.7.6.4 1 .9 1.3 1.5.3.8.5 1.7.8 2.5.5 1.3.4 2.6-.1 4-.4 1-.9 1.7-1.8 2.1-.3.1-.5.2-.8.4-1.6 1.3-3.6 1.9-5.4 2.7-.4.2-.9.3-1.4.4-2.7.7-5.4 1.3-8.2 2-.4.1-.8.2-1.1.2-1.9 0-3.8.5-5.7.9-.8.1-1.5.1-2.3.2-1 .1-1.9.2-2.9.4-1.9.2-3.1.4-4.5.3zm-18.7-22.4c2.5.1 5.1.1 7.7-.4.7-.1 1.3-.1 2-.1 2.6.1 5.2-.5 7.8-.6.2 0 .4-.1.6-.1.5-.1 1.1-.7 1.1-1.2 0-1 .1-1.9-.1-2.9-.7-3.6-1.3-7.2-2.6-10.6-1.1-3-2.4-5.9-4.2-8.5-.7-1-1.5-1.5-2.6-1.4-2.5.1-5 .1-7.5.2-1.1.1-2.3.3-3.3.8-.4.2-.9.4-1.4.5-1.9.3-3.7 1.1-5.4 1.9-3.7 1.7-7.2 3.7-10.4 6.2-2.3 1.8-4 3.9-5.3 6.4-1.8 3.3-2.4 6.9-2.4 10.6 0 .4.1.8.2 1.1.1.5.8 1 1.3 1.1.5 0 1 0 1.4-.1 1.2-.3 2.5-.3 3.7-.5 2.2-.2 4.4-.5 6.6-.9 1.5-.3 3-.6 4.6-.7.5 0 1 0 1.4-.1 2.1-.7 4.4-.6 6.8-.7zm12.4 8.9v-.1c-3.9.1-7.7.1-11.6.2-.9 0-1.7.2-2.6.3-1.2.2-2.5.5-3.7.6-2.2.1-4.4.5-6.6.8-3.1.4-6 1.5-8.8 2.6-.3.1-.6.5-.9.7-.1.1-.1.7.1.8.3.2.6.4 1 .6 1.5.5 3.1 1.1 4.7 1.5.5.2 1.1.3 1.7.4 1.1.3 2.3.5 3.4.8 2.5.6 5.1 1.1 7.7 1.1 2.9 0 5.8 0 8.7.4.7.1 1.3.1 2 .1h10.7c1.2 0 2.3-.2 3.4-.4 1.3-.3 2.6-.5 4-.7 3.3-.5 6.7-.9 10-1.7 2.2-.6 4.5-1.1 6.7-1.6.4-.1.7-.3 1.1-.4.3-.1.4-.8.1-1-.7-.4-1.3-.9-2-1.1-2.9-1.1-5.8-2-8.9-2.6-1.9-.4-3.8-.5-5.7-.8-1.7-.3-3.4-.4-5.2-.4-3.1-.1-6.2-.1-9.3-.1zm27.4-7.7c.5 0 1.1-.1 1.6-.1s.9-.6.8-1c-.2-1-.4-2.1-.7-3.1-1-3.5-2.1-7-3.6-10.4-.7-1.5-1.3-3-2.1-4.4-1.4-2.5-3.5-4.3-6.2-5.4-1.6-.7-3.2-1.4-4.7-2.1-.5-.2-.9-.3-1.4-.3-.5 0-1 .1-1.4.1-.8.1-1.2.7-1 1.4.5 1.3 1.1 2.7 1.6 4 .8 2.2 1.6 4.3 2.4 6.5.7 2.1 1 4.3 1.3 6.5.2 2 .8 4 .4 6-.1.3.3.8.6.9 1.2.4 2.4.7 3.7.7 2.1 0 4.2.1 6.3.5.7.1 1.5.1 2.4.2zm-29.3-49.1c-2.4-.1-4.6.2-6.8.5-.8.1-1.3.7-1.2 1.7.1.8.2 1.5.2 2.3 0 2.1.4 4.2.7 6.3.1.9.6 1.4 1.5 1.5 1 .1 1.9.1 2.9.3 2.5.5 5-.1 7.5-.3.6 0 1.1-.6 1.1-1.2.1-1.2.1-2.5.1-3.8 0-1-.1-1.9-.6-2.8-.2-.5-.4-1.1-.5-1.6-.2-.9 0-1.7.8-2.3.3-.2.7-.4.9-.7.2-.2.2-.5.2-.8 0-.3-.6-.7-.9-.6-.2 0-.4 0-.5.1-1.3 1.1-2.8 1.3-4.4 1.2-.4.2-.8.2-1 .2zm-2.6-8.8c.1.4.1.8.2 1.3.2.8 1.1 1.4 2 1.2.4-.1.9-.6.9-1 0-1.1-.3-2.1-1-2.9-.3-.4-.9-.6-1.2-.4-.4.2-.6.5-.7.9-.1.3-.2.6-.2.9zm-5.6 25.4c1.2-.1 2.4-.1 3.7-.2.1 0 .2-.1.2-.2.1-.2 0-.4-.3-.4-1.1-.1-2.3-.1-3.4-.1h-.3c-.2.1-.3.2-.5.3-.1.1.2.4.6.6zm14.4-.8l.1.1c.7 0 1.3-.1 2-.1.1 0 .2-.1.2-.2 0-.2-.1-.2-.3-.2-.7.2-1.3.3-2 .4zm7.5 2.8v-.2l-.2.1.2.1z"/></defs><clipPath id="SVGID_8_"><use xlink:href="#SVGID_7_" overflow="visible"/></clipPath><g class="st3"><defs><path id="SVGID_9_" d="M-1.2 26.1h85.7v200.4H-1.2z"/></defs><clipPath id="SVGID_10_"><use xlink:href="#SVGID_9_" overflow="visible"/></clipPath><path class="st4" d="M-6 20.4h95.5v212H-6z"/></g></g></g></g><defs><path id="SVGID_11_" d="M179.1 0h83.4v199.9h-83.4z"/></defs><clipPath id="SVGID_12_"><use xlink:href="#SVGID_11_" overflow="visible"/></clipPath><g class="st5"><defs><path id="SVGID_13_" d="M-1122.3-2536.7H616.1v5569.1h-1738.4z"/></defs><clipPath id="SVGID_14_"><use xlink:href="#SVGID_13_" overflow="visible"/></clipPath><g class="st6"><defs><path id="SVGID_15_" d="M177.9-.2h85.7v200.4h-85.7z"/></defs><clipPath id="SVGID_16_"><use xlink:href="#SVGID_15_" overflow="visible"/></clipPath><g class="st7"><defs><path id="SVGID_17_" d="M228.8 199.6c-.5 0-1.1 0-1.7.1-1.4.3-2.9.3-4.3.2h-3.5c-1.2 0-2.3 0-3.5-.2-.9-.1-1.7-.2-2.6-.2-1.7-.1-3.5-.2-5.2-.1-3.2.1-6.3-.6-9.4-1.3-1.4-.4-2.8-.8-4.2-.9-3-.9-6.1-1.8-9.1-2.8-1.3-.4-2.4-1.2-3.1-2.5-.3-.5-.6-1-1-1.4-1.1-1.3-1.6-2.9-1.9-4.5-.2-.7-.1-1.4.4-1.9 1.3-1.3 1.5-2.8 1.2-4.5-.4-2.6-.1-5.2.7-7.7.6-1.8 1.2-3.7 1.9-5.5.5-1.3 1.3-2.4 2.2-3.4.7-.9 1.5-1.8 2.3-2.6.4-.4.8-.8 1.3-1.2 1.8-1.5 3.6-2.9 5.7-3.9.6-.3 1.2-.7 1.8-1 1.4-.8 2.9-1.6 4.3-2.4l1.8-.9c.6-.3 1.1-.8 1.1-1.6 0-1.1.4-2.1 1.2-2.9.3-.3.5-.6.6-1 .3-.6.8-1.1 1.4-1.4.8-.5 1.6-1.1 2.4-1.6.5-.4.7-.9.7-1.5v-1.2c-.2-2.6-.5-5.2-.7-7.8-.1-1 0-1.9.3-2.9.2-.8.6-1.4 1.3-1.9 1.1-.9 2.2-1.8 3.4-2.7.3-.3.5-.6.5-1 0-.6-.1-1.2-.2-1.7-.3-1.7-.1-3.3.9-4.7.1-.2.2-.3.3-.5.6-.8.9-1.7.9-2.7 0-4 .7-7.9.6-11.8-.1-1.5.2-3.1.3-4.6 0-1 .1-1.9 0-2.9-.4-3.8-.5-7.5 0-11.3.1-.4.1-.8.1-1.2 0-3.3.6-6.5 1-9.8.2-1.6.2-3.3.2-4.9 0-1.6-.1-3.3 0-4.9 0-2.4-.4-4.8-.7-7.2-.3-2.6-.7-5.2-1.1-7.7-.1-.5 0-1 0-1.4.3-4 .3-7.9.1-11.9 0-.4 0-.8-.1-1.2-.5-3.1-.5-6.2-.5-9.2 0-5.3-.1-10.6-.1-15.9 0-1.9 0-3.9.1-5.8 0-.4.1-.8.2-1.1.2-.6.9-1.1 1.6-1 .6.1 1.1.6 1.1 1.2-.1 1.2-.3 2.5-.3 3.7 0 4-.1 7.9.4 11.9.1 1.2.2 2.5.1 3.8-.2 1.9-.1 3.8 0 5.8.1 3.7.1 7.3.2 11 0 1.7.2 3.5.2 5.2 0 1.6-.2 3.3-.3 4.9-.1 1.8.1 3.7.4 5.5.7 3.6 1 7.3.9 10.9 0 .7.1 1.4.2 2 .3 2.1.3 4.2 0 6.3-.1.9-.2 1.7-.2 2.6-.1.8-.1 1.5-.1 2.3-.7 6-.6 11.9-.5 17.9.1 4.1-.1 8.1-.1 12.2v3.5c0 .7.1 1.4 0 2-.1 1.2 0 2.3 1.2 3 1.6 1.6 2.6 3.6 2.9 5.9 0 .2 0 .4.1.6.3 1.7 1.1 2.5 2.9 2.6.8.1 1.5.4 2 .9 1.1 1 1.6 2.4 1.9 3.8.2.8 0 1.5-.6 2.1-.3.3-.6.5-.8.8-.1.1 0 .4.1.5.8.4 1.9.3 2.4-.3.3-.5.6-1 1-1.4.7-.9 2.2-.7 2.7.3.2.4.3.7.4 1.1.1 1.2.3 2.5.3 3.7 0 .5-.2.9-.5 1.3-.4.5-.9.7-1.5.6-.6-.1-1.1-.3-1.6-.7-.3-.3-.5-.6-.8-.8-.4-.3-.9-.4-1.4-.3-.5.1-1 .5-1 .9-.1 1.1.1 2.1.5 3.1.1.3.3.5.5.6 1.2.6 2.2 1.5 3.2 2.5.4.4.9.7 1.4.9 1.6.8 2.7 2.1 3.2 3.9.1.4.2.8.4 1.1.2.3.5.6.8.8.3.2.7.3 1.1.5 1 .3 1.9 1 2.8 1.5 3 1.9 4.7 4.8 6.3 7.8.9 1.7 1.7 3.5 2.2 5.3l1.2 3.3c1 3.2 2.3 6.4 2.9 9.7.1.8.6 1.4 1.3 1.9.9.6 1.8 1.1 2.7 1.7.6.4 1 .9 1.3 1.5.3.8.5 1.7.8 2.5.5 1.3.4 2.6-.1 4-.4 1-.9 1.7-1.8 2.1-.3.1-.5.2-.8.4-1.6 1.3-3.6 1.9-5.4 2.7-.4.2-.9.3-1.4.4-2.7.7-5.4 1.3-8.2 2-.4.1-.8.2-1.1.2-1.9 0-3.8.5-5.7.9-.8.1-1.5.1-2.3.2-1 .1-1.9.2-2.9.4-2 .2-3.2.4-4.5.3zM210 177.2c2.5.1 5.1.1 7.7-.4.7-.1 1.3-.1 2-.1 2.6.1 5.2-.5 7.8-.6.2 0 .4-.1.6-.1.5-.1 1.1-.7 1.1-1.2 0-1 .1-1.9-.1-2.9-.7-3.6-1.3-7.2-2.6-10.6-1.1-3-2.4-5.9-4.2-8.5-.7-1-1.5-1.5-2.6-1.4-2.5.1-5 .1-7.5.2-1.1.1-2.3.3-3.3.8-.4.2-.9.4-1.4.5-1.9.3-3.7 1.1-5.4 1.9-3.7 1.7-7.2 3.7-10.4 6.2-2.3 1.8-4 3.9-5.3 6.4-1.8 3.3-2.4 6.9-2.4 10.6 0 .4.1.8.2 1.1.1.5.8 1 1.3 1.1.5 0 1 0 1.4-.1 1.2-.3 2.5-.3 3.7-.5 2.2-.2 4.4-.5 6.6-.9 1.5-.3 3-.6 4.6-.7.5 0 1 0 1.4-.1 2.1-.7 4.4-.6 6.8-.7zm12.5 8.9v-.1c-3.9.1-7.7.1-11.6.2-.9 0-1.7.2-2.6.3-1.2.2-2.5.5-3.7.6-2.2.1-4.4.5-6.6.8-3.1.4-6 1.5-8.8 2.6-.3.1-.6.5-.9.7-.1.1-.1.7.1.8.3.2.6.4 1 .6 1.5.5 3.1 1.1 4.7 1.5.5.2 1.1.3 1.7.4 1.1.3 2.3.5 3.4.8 2.5.6 5.1 1.1 7.7 1.1 2.9 0 5.8 0 8.7.4.7.1 1.3.1 2 .1h10.7c1.2 0 2.3-.2 3.4-.4 1.3-.3 2.6-.5 4-.7 3.3-.5 6.7-.9 10-1.7 2.2-.6 4.5-1.1 6.7-1.6.4-.1.7-.3 1.1-.4.3-.1.4-.8.1-1-.7-.4-1.3-.9-2-1.1-2.9-1.1-5.8-2-8.9-2.6-1.9-.4-3.8-.5-5.7-.8-1.7-.3-3.4-.4-5.2-.4-3.2-.1-6.2-.1-9.3-.1zm27.3-7.7c.5 0 1.1-.1 1.6-.1s.9-.6.8-1c-.2-1-.4-2.1-.7-3.1-1-3.5-2.1-7-3.6-10.4-.7-1.5-1.3-3-2.1-4.4-1.4-2.5-3.5-4.3-6.2-5.4-1.6-.7-3.2-1.4-4.7-2.1-.5-.2-.9-.3-1.4-.3-.5 0-1 .1-1.4.1-.8.1-1.2.7-1 1.4.5 1.3 1.1 2.7 1.6 4 .8 2.2 1.6 4.3 2.4 6.5.7 2.1 1 4.3 1.3 6.5.2 2 .8 4 .4 6-.1.3.3.8.6.9 1.2.4 2.4.7 3.7.7 2.1 0 4.2.1 6.3.5.8.1 1.6.1 2.4.2zm-29.3-49.1c-2.4-.1-4.6.2-6.8.5-.8.1-1.3.7-1.2 1.7.1.8.2 1.5.2 2.3 0 2.1.4 4.2.7 6.3.1.9.6 1.4 1.5 1.5 1 .1 1.9.1 2.9.3 2.5.5 5-.1 7.5-.3.6 0 1.1-.6 1.1-1.2.1-1.2.1-2.5.1-3.8 0-1-.1-1.9-.6-2.8-.2-.5-.4-1.1-.5-1.6-.2-.9 0-1.7.8-2.3.3-.2.7-.4.9-.7.2-.2.2-.5.2-.8 0-.3-.6-.7-.9-.6-.2 0-.4 0-.5.1-1.3 1.1-2.8 1.3-4.4 1.2-.4.2-.8.2-1 .2zm-2.6-8.7c.1.4.1.8.2 1.3.2.8 1.1 1.4 2 1.2.4-.1.9-.6.9-1 0-1.1-.3-2.1-1-2.9-.3-.4-.9-.6-1.2-.4-.4.2-.6.5-.7.9-.1.2-.1.5-.2.9zm-5.5 25.3c1.2-.1 2.4-.1 3.7-.2.1 0 .2-.1.2-.2.1-.2 0-.4-.3-.4-1.1-.1-2.3-.1-3.4-.1h-.3c-.2.1-.3.2-.5.3-.2.1.2.5.6.6zm14.4-.8l.1.1c.7 0 1.3-.1 2-.1.1 0 .2-.1.2-.2 0-.2-.1-.2-.3-.2-.7.2-1.4.3-2 .4zm7.4 2.8v-.2l-.2.1.2.1z"/></defs><clipPath id="SVGID_18_"><use xlink:href="#SVGID_17_" overflow="visible"/></clipPath><g class="st8"><defs><path id="SVGID_19_" d="M177.9-.2h85.7v200.4h-85.7z"/></defs><clipPath id="SVGID_20_"><use xlink:href="#SVGID_19_" overflow="visible"/></clipPath><path class="st9" d="M173.1-6h95.5v212h-95.5z"/></g></g></g></g><g><defs><path id="SVGID_21_" d="M159.4 279.8c-1.8-.1-4.4 0-7-.5-.8-.1-1.5-.1-2.3-.2-1.2-.1-2.3-.2-3.5-.3-1-.1-1.9-.2-2.9-.2-1.5-.1-3.1-.3-4.6-.3-3.1-.1-6.2-.1-9.3-.2-.6 0-1.2.1-1.7.1-3.7-.4-7.3.3-10.9.7-.9.1-1.7.1-2.6.2-2.2 0-4.4.1-6.6.6-.6.1-1.1.2-1.7.2-.8 0-1.5-.4-1.8-1.2-.4-.9-.7-1.8-.7-2.8 0-1.3 0-2.7.2-4 .2-1.9.6-3.8 1-5.7 0-.2.1-.4.1-.6.3-1.3 2.5-6.3 3.2-7.4.3-.5.8-.9 1-1.4 1.1-2.3 2.7-4.2 4.3-6.1.6-.7 1.1-1.4 1.8-1.9 1.9-1.4 3.6-3 5.6-4.1.8-.4 1.4-1 1.7-1.9.5-1.5 1.3-2.8 2.4-3.9.9-1 1.3-2.2 1.2-3.5 0-1-.2-1.9-.3-2.9-.1-.9.4-1.7 1.3-2 .6-.2 1.3-.4 1.9-.6.8-.3 1.2-.9 1.2-1.8.1-2 .2-4.1-.2-6.1-.4-1.8.3-3.2 1.6-4.4.9-.8 1.9-1.4 2.9-1.9.6-.3.9-.8.8-1.4-.5-2.3-.3-4.6-.2-6.9.1-1.9-.2-3.9-.2-5.8-.1-2 0-4.1 0-6.1 0-.7 0-1.4.1-2 .6-4.3.3-8.7.4-13 .1-2.4.1-4.8.1-7.2 0-1 .1-1.9.2-2.9 0-.9.1-1.7 0-2.6-.1-1.9-.2-3.9-.3-5.8-.1-1.7-.1-3.5-.4-5.2-.1-.8-.2-1.5-.2-2.3-.1-.7 0-1.4-.1-2-.4-2.6-.3-5.2-.4-7.8 0-3.2-.2-6.4-.2-9.6 0-5.5 0-11 .1-16.5 0-3 0-6-.4-9-.4-3.1-.3-6.2 0-9.2.1-1.4.2-2.9.2-4.3 0-4.9.1-9.8.1-14.8v-1.2c0-.8.6-1.4 1.5-1.4.2 0 .4.1.6.1.5 0 .6-.1.6-.4V77c.1-.6.7-1 1.3-.9.9.1 1.7.8 1.7 1.7 0 2 0 4-.2 6.1-.3 2.7-.3 5.4 0 8.1.1 1.2.1 2.3 0 3.5-.4 3.4-.2 6.7-.2 10.1 0 1.8 0 3.7-.3 5.5-.2 1-.2 2.1 0 3.2.4 2 .4 4 .3 6.1 0 1.9 0 3.9.4 5.8 0 .2.1.4.1.6 0 2.9.7 5.7 1.1 8.6 0 .3.1.6.1.9.1 4.5.4 9.1-.1 13.6-.3 2.8-.3 5.6-.3 8.4 0 1.9.2 3.9.3 5.8.1 2.4.2 4.8-.1 7.2-.1.8 0 1.5 0 2.3.1 1.4.2 2.9.2 4.3 0 1.3 0 2.7.1 4.1.2 4.1 0 8.3 0 12.4 0 1.5-.2 3.1-.2 4.6-.1 2.9-.1 5.8-.2 8.7-.1 1.9.3 3.8.6 5.7.1.5.4.9.9 1.1.4.1.7.3 1.1.3 1.4.3 2.2 1.2 2.5 2.5.2 1 .4 2.1.5 3.1.1.7.1 1.3.1 2 .1.9.2 1.7.3 2.6.2 1.3.7 2.4 1.8 3.1.8.5 1.5 1.2 2.2 1.9.5.5.7 1.1.6 1.9-.2 1.4-.4 2.9-.6 4.3-.1.6 0 1.2.4 1.6 1.2 1.4 2 3 2.7 4.8.4 1.1 1.1 1.8 2.1 2.3 1.3.6 2.6 1.4 3.7 2.3.3.2.6.5.9.7 1.7 2 3.6 3.8 4.7 6.2.8 1.6 1.8 3.2 2.6 4.9.6 1.3 1.2 2.6 1.7 4 .6 1.9 1.2 3.9 1.6 5.9.4 1.9 1 3.7 1.5 5.6.1.5.3.9.4 1.4.2 1-.2 1.7-.9 2.3-.4.3-.8.5-1.3.7-1.8.7-3.7 1.2-5.6 1.2-1.8-.3-3.6-.3-6.1-.3zm.1-3.1c1.5 0 3.5-.1 5.4-.1 1.1 0 2.1-.2 3.1-.6.8-.3 1.2-.9 1.1-1.8 0-.3-.1-.6-.1-.9-.3-1.7-.7-3.4-1-5.1-.4-2.1-1-4.1-1.8-6.1-1-2.6-2.4-5-3.8-7.5-2.2-3.9-5.5-6.4-9.6-7.9-1.7-.7-3.5-1-5.4-1.2-.9-.1-1.7-.1-2.6-.3-2.9-.5-5.8-.6-8.6-.2-2.7.4-5.4.6-8 .9-5.4.6-9.6 3.2-13.1 7.2-.2.3-.4.6-.7 1-1 1.5-2.1 3-3 4.6-.6 1-1.2 2-1.6 3.1-1.2 3.1-2 6.2-2.7 9.4-.2.9-.2 1.9.1 2.9.3 1 1 1.6 2.1 1.8.5.1 1 .1 1.4.1 2.3 0 4.6 0 6.9-.1.8 0 1.6 0 2.3-.2 2.2-.4 4.4-.5 6.6-.5 6.7.2 13.5-.2 20.2.6 1.3.1 2.7 0 4 .2 2.8.6 5.6.5 8.8.7zm-26.1-53c.1.4.1.8.1 1.2 0 .8 0 1.5.1 2.3 0 .5.6 1.1 1.1 1.2.5.1 1 .2 1.4.1 2.1-.2 4.2-.5 6.3-.7.1 0 .2-.1.3-.1.6-.2 1.1-.9 1.1-1.5 0-.9-.2-1.7-.2-2.6 0-1.5-.3-3.1-.6-4.6-.2-1-.8-1.7-2-1.7-.8 0-1.5.2-2.3.3-1.4.1-2.6.6-3.8 1.3-1 .5-1.6 1.3-1.5 2.5v2.3zm2.4 14.8c-.7 0-1.9.1-3 .1-.6 0-1.1.3-1.5.8-.3.3-.5.6-.8.9-.3.2-.7.4-1 .4-.3.1-.6-.1-.9 0-1.1.1-1.7.8-2.1 1.8 0 .1 0 .2.1.3.3.1.5.3.8.3 2.8 0 5.6-.3 8.3-.7 3-.4 5.9-.4 8.9-.1 1.6.2 3.3.2 4.9.4.5 0 .9-.5.7-1-.4-1-1.1-1.8-1.9-2.5-.9-.8-2-1.2-3.2-1.1-1.5.1-3.1.1-4.6.3-1.4 0-2.8.2-4.7.1zm9.9-4c.3 0 .7.1 1.1.1.8 0 1.3-.4 1.3-1.2 0-.6 0-1.2-.1-1.7-.1-.9-1-2-2.3-1.5-.9.3-1.8.7-2.8.8-2.1.2-4.2.7-6.3.6-.6 0-1.2 0-1.7.3-1 .5-2 .6-3.1.8-.5.1-.9.2-1.4.4-.5.2-.9.8-.8 1.4 0 .6.5 1.1 1.1 1.1.5 0 1 0 1.4-.1 1.1-.2 2.3-.2 3.4-.1.7.1 1.5 0 2.3-.1 2.2-.2 4.4-.5 6.6-.7.4-.1.8-.1 1.3-.1zm-8.2-105.3c-.1 3.2-.4 6.4-.2 9.6.2 2.4.1 4.8.1 7.2 0 2.2 0 4.4.5 6.6 0 .2 0 .5.4.4 0-.9.1-1.7.1-2.6 0-2 .1-4 .3-6 .1-.9 0-1.9 0-2.9-.1-1.2-.3-2.5-.3-3.7 0-2.9-.2-5.8-.9-8.6zm.8 61.4c-.3 2.7-.3 5.6-.1 9.4.2-.5.2-1.1.2-1.7v-7.2c0-.2-.1-.4-.1-.5zm-1.2-84.8v-.6h-.1v.6h.1zm1.7 80.7l-.1.2h.1v-.2z"/></defs><clipPath id="SVGID_22_"><use xlink:href="#SVGID_21_" overflow="visible"/></clipPath><g class="st10"><defs><path id="SVGID_23_" d="M-1431.9-2493H306.5v5569.1h-1738.4z"/></defs><clipPath id="SVGID_24_"><use xlink:href="#SVGID_23_" overflow="visible"/></clipPath><path class="st11" d="M97.7 70h81.6v215.8H97.7z"/></g></g><g><defs><path id="SVGID_25_" d="M692.7 162.6c1 0 1.6.8 1.4 1.7-.2.7-.5 1.3-1 1.8s-1.3.6-2 .2c-.6-.4-1-1.1-.8-1.8.4-1.1 1.2-1.8 2.4-1.9"/></defs><clipPath id="SVGID_26_"><use xlink:href="#SVGID_25_" overflow="visible"/></clipPath><g class="st12"><defs><path id="SVGID_27_" d="M-311.5-2134.4h1440v4613h-1440z"/></defs><clipPath id="SVGID_28_"><use xlink:href="#SVGID_27_" overflow="visible"/></clipPath><path class="st13" d="M685.3 157.6h13.8v14h-13.8z"/></g></g></svg>
