<svg id="Lager_1" xmlns="http://www.w3.org/2000/svg" viewBox="0 0 379.7 49"><style>.st0{fill:#9D1A43;}</style><path class="st0" d="M0 49V0h7.6l20.2 28L47.9 0h7.6v49h-3.8V3h-2.1L27.7 33.4 5.9 3.1H3.8v46H0zM6.3 7.6l21.1 29.3h.7L49.2 7.6V49h-3.8V18.4L30.3 39.7h-5L10.1 18.4V49H6.3V7.6zM103.8 0l19.8 49h-3.8L101.3 3.6h-3.2L79.6 49h-3.8L95.6 0h8.2zM90.2 39.4L86.3 49h-4.1l5.2-13h24.4l5.4 13h-4.1l-4.1-9.7H90.2zM88 34.1L99.7 5.9l11.6 28.2H88zm18.6-2.8l-6.9-17-6.8 17h13.7zM137.2 3.2V0h36.3v3.2h-36.3zM154.1 49h-3.8V8.5h-13.1V5.3h16.9V49zm2.6 0V5.3h16.9v3.2h-13.1V49h-3.8zM200.1 49h-3.8V0h3.8v49zm2.5 0V0h3.8v49h-3.8zM262.4 45.8V49h-29.8V0h3.8v45.8h26zm0-2.1H239V0h3.8v40.5h19.7v3.2zM284.5 0h16.4c15.9 0 26.6 9 26.6 24.5 0 15.6-10.7 24.5-26.6 24.5h-16.4V0zm16.4 45.8c13.5 0 22.8-7.9 22.8-21.3s-9.2-21.3-22.8-21.3h-12.6v42.6h12.6zM290.8 5.3H301c11.6 0 20.2 6.6 20.2 19.2s-8.5 19.2-20.2 19.2h-10.2V5.3zM301 40.5c9.2 0 16.3-5.3 16.3-16s-7.1-16-16.3-16h-6.4v32h6.4zM379.7 45.8V49h-30.8V0H379v3.2h-26.3v42.6h27zm-8.9-20.9h-15.6V5.3H379v3.2h-20v13.2h11.8v3.2zm8.9 18.8h-24.5V27h15.6v3.2H359v10.2h20.7v3.3z"/></svg>
