<svg id="Layer_1" xmlns="http://www.w3.org/2000/svg" xmlns:xlink="http://www.w3.org/1999/xlink" viewBox="0 0 32.9 31.9"><style>.st0{clip-path:url(#SVGID_2_);} .st1{clip-path:url(#SVGID_4_);enable-background:new ;} .st2{clip-path:url(#SVGID_6_);} .st3{clip-path:url(#SVGID_8_);} .st4{clip-path:url(#SVGID_10_);fill:#A12341;} .st5{clip-path:url(#SVGID_12_);} .st6{clip-path:url(#SVGID_14_);enable-background:new ;} .st7{clip-path:url(#SVGID_16_);} .st8{clip-path:url(#SVGID_18_);} .st9{clip-path:url(#SVGID_20_);fill:#A12341;} .st10{clip-path:url(#SVGID_22_);} .st11{clip-path:url(#SVGID_24_);enable-background:new ;} .st12{clip-path:url(#SVGID_26_);} .st13{clip-path:url(#SVGID_28_);} .st14{clip-path:url(#SVGID_30_);fill:#A12341;} .st15{clip-path:url(#SVGID_32_);} .st16{clip-path:url(#SVGID_34_);enable-background:new ;} .st17{clip-path:url(#SVGID_36_);} .st18{clip-path:url(#SVGID_38_);} .st19{clip-path:url(#SVGID_40_);fill:#1E1E1C;} .st20{clip-path:url(#SVGID_42_);} .st21{clip-path:url(#SVGID_44_);enable-background:new ;} .st22{clip-path:url(#SVGID_46_);} .st23{clip-path:url(#SVGID_48_);} .st24{clip-path:url(#SVGID_50_);fill:#1E1E1C;} .st25{clip-path:url(#SVGID_52_);} .st26{clip-path:url(#SVGID_54_);enable-background:new ;} .st27{clip-path:url(#SVGID_56_);} .st28{clip-path:url(#SVGID_58_);} .st29{clip-path:url(#SVGID_60_);fill:#A12341;} .st30{clip-path:url(#SVGID_62_);} .st31{clip-path:url(#SVGID_64_);enable-background:new ;} .st32{clip-path:url(#SVGID_66_);} .st33{clip-path:url(#SVGID_68_);} .st34{clip-path:url(#SVGID_70_);fill:#A12341;}</style><defs><path id="SVGID_1_" d="M0 0h32.9v31.9H0z"/></defs><clipPath id="SVGID_2_"><use xlink:href="#SVGID_1_" overflow="visible"/></clipPath><g class="st0"><defs><path id="SVGID_3_" d="M-704-868H736V32H-704z"/></defs><clipPath id="SVGID_4_"><use xlink:href="#SVGID_3_" overflow="visible"/></clipPath><g class="st1"><defs><path id="SVGID_5_" d="M-24-24h81v73h-81z"/></defs><clipPath id="SVGID_6_"><use xlink:href="#SVGID_5_" overflow="visible"/></clipPath><g class="st2"><defs><path id="SVGID_7_" d="M56.3-23.8L16.6 39.9-23.2-24l.1 9.2s39.6 63.2 39.7 63.2c.1 0 39.7-63 39.7-63v-9.2z"/></defs><clipPath id="SVGID_8_"><use xlink:href="#SVGID_7_" overflow="visible"/></clipPath><g class="st3"><defs><path id="SVGID_9_" d="M0 0h33v32H0z"/></defs><clipPath id="SVGID_10_"><use xlink:href="#SVGID_9_" overflow="visible"/></clipPath><path class="st4" d="M-28.2-29h89.5v82.4h-89.5z"/></g></g></g></g><defs><path id="SVGID_11_" d="M0 0h32.9v31.2H0z"/></defs><clipPath id="SVGID_12_"><use xlink:href="#SVGID_11_" overflow="visible"/></clipPath><g class="st5"><defs><path id="SVGID_13_" d="M-704-868H736V32H-704z"/></defs><clipPath id="SVGID_14_"><use xlink:href="#SVGID_13_" overflow="visible"/></clipPath><g class="st6"><defs><path id="SVGID_15_" d="M-24-42h81v74h-81z"/></defs><clipPath id="SVGID_16_"><use xlink:href="#SVGID_15_" overflow="visible"/></clipPath><g class="st7"><defs><path id="SVGID_17_" d="M56.3-41L16.6 22.7l-39.8-63.8.1 9.2s39.6 63.1 39.7 63.1c.1 0 39.7-62.9 39.7-62.9V-41z"/></defs><clipPath id="SVGID_18_"><use xlink:href="#SVGID_17_" overflow="visible"/></clipPath><g class="st8"><defs><path id="SVGID_19_" d="M0 0h33v32H0z"/></defs><clipPath id="SVGID_20_"><use xlink:href="#SVGID_19_" overflow="visible"/></clipPath><path class="st9" d="M-28.2-46.1h89.5v82.3h-89.5z"/></g></g></g></g><defs><path id="SVGID_21_" d="M0 0h32.9v14.1H0z"/></defs><clipPath id="SVGID_22_"><use xlink:href="#SVGID_21_" overflow="visible"/></clipPath><g class="st10"><defs><path id="SVGID_23_" d="M-704-868H736V32H-704z"/></defs><clipPath id="SVGID_24_"><use xlink:href="#SVGID_23_" overflow="visible"/></clipPath><g class="st11"><defs><path id="SVGID_25_" d="M-24-59h81v74h-81z"/></defs><clipPath id="SVGID_26_"><use xlink:href="#SVGID_25_" overflow="visible"/></clipPath><g class="st12"><defs><path id="SVGID_27_" d="M56.3-58.4L16.6 5.5l-39.8-64.1.1 9.2S16.5 14 16.6 14c.1 0 39.7-63.2 39.7-63.2v-9.2z"/></defs><clipPath id="SVGID_28_"><use xlink:href="#SVGID_27_" overflow="visible"/></clipPath><g class="st13"><defs><path id="SVGID_29_" d="M0 0h33v15H0z"/></defs><clipPath id="SVGID_30_"><use xlink:href="#SVGID_29_" overflow="visible"/></clipPath><path class="st14" d="M-28.2-63.5h89.5v82.6h-89.5z"/></g></g></g></g><g><defs><path id="SVGID_31_" d="M16.6 0h16.3v2.6H16.6z"/></defs><clipPath id="SVGID_32_"><use xlink:href="#SVGID_31_" overflow="visible"/></clipPath><g class="st15"><defs><path id="SVGID_33_" d="M-704-868H736V32H-704z"/></defs><clipPath id="SVGID_34_"><use xlink:href="#SVGID_33_" overflow="visible"/></clipPath><g class="st16"><defs><path id="SVGID_35_" d="M16-70h81V3H16z"/></defs><clipPath id="SVGID_36_"><use xlink:href="#SVGID_35_" overflow="visible"/></clipPath><g class="st17"><defs><path id="SVGID_37_" d="M96.1-69.1L56.4-5.8 16.6-69.2l.1 9.1S56.3 2.6 56.4 2.6c.1 0 39.7-62.5 39.7-62.5v-9.2z"/></defs><clipPath id="SVGID_38_"><use xlink:href="#SVGID_37_" overflow="visible"/></clipPath><g class="st18"><defs><path id="SVGID_39_" d="M16 0h17v3H16z"/></defs><clipPath id="SVGID_40_"><use xlink:href="#SVGID_39_" overflow="visible"/></clipPath><path class="st19" d="M11.6-74.2h89.6V7.7H11.6z"/></g></g></g></g></g><g><defs><path id="SVGID_41_" d="M0 0h16.8v2.6H0z"/></defs><clipPath id="SVGID_42_"><use xlink:href="#SVGID_41_" overflow="visible"/></clipPath><g class="st20"><defs><path id="SVGID_43_" d="M-704-868H736V32H-704z"/></defs><clipPath id="SVGID_44_"><use xlink:href="#SVGID_43_" overflow="visible"/></clipPath><g class="st21"><defs><path id="SVGID_45_" d="M-63-70h80V3h-80z"/></defs><clipPath id="SVGID_46_"><use xlink:href="#SVGID_45_" overflow="visible"/></clipPath><g class="st22"><defs><path id="SVGID_47_" d="M16.8-69.1L-22.9-5.8l-39.7-63.4.1 9.1S-23 2.6-22.9 2.6s39.6-62.5 39.6-62.5v-9.2z"/></defs><clipPath id="SVGID_48_"><use xlink:href="#SVGID_47_" overflow="visible"/></clipPath><g class="st23"><defs><path id="SVGID_49_" d="M0 0h17v3H0z"/></defs><clipPath id="SVGID_50_"><use xlink:href="#SVGID_49_" overflow="visible"/></clipPath><path class="st24" d="M-67.6-74.2h89.3V7.7h-89.3z"/></g></g></g></g></g><g><defs><path id="SVGID_51_" d="M16.6 0h16.3v18.6H16.6z"/></defs><clipPath id="SVGID_52_"><use xlink:href="#SVGID_51_" overflow="visible"/></clipPath><g class="st25"><defs><path id="SVGID_53_" d="M-704-868H736V32H-704z"/></defs><clipPath id="SVGID_54_"><use xlink:href="#SVGID_53_" overflow="visible"/></clipPath><g class="st26"><defs><path id="SVGID_55_" d="M16-52h80v71H16z"/></defs><clipPath id="SVGID_56_"><use xlink:href="#SVGID_55_" overflow="visible"/></clipPath><g class="st27"><defs><path id="SVGID_57_" d="M96-51.3L56.4 11.9 16.7-51.3l-.1 9.5 38 60.4c.1 0 41.4-60.7 41.4-60.7v-9.2z"/></defs><clipPath id="SVGID_58_"><use xlink:href="#SVGID_57_" overflow="visible"/></clipPath><g class="st28"><defs><path id="SVGID_59_" d="M16 0h17v19H16z"/></defs><clipPath id="SVGID_60_"><use xlink:href="#SVGID_59_" overflow="visible"/></clipPath><path class="st29" d="M11.6-56.3H101v79.9H11.6z"/></g></g></g></g></g><g><defs><path id="SVGID_61_" d="M0 0h16.8v20.6H0z"/></defs><clipPath id="SVGID_62_"><use xlink:href="#SVGID_61_" overflow="visible"/></clipPath><g class="st30"><defs><path id="SVGID_63_" d="M-704-868H736V32H-704z"/></defs><clipPath id="SVGID_64_"><use xlink:href="#SVGID_63_" overflow="visible"/></clipPath><g class="st31"><defs><path id="SVGID_65_" d="M-63-52h80v73h-80z"/></defs><clipPath id="SVGID_66_"><use xlink:href="#SVGID_65_" overflow="visible"/></clipPath><g class="st32"><defs><path id="SVGID_67_" d="M16.6-51.5l-39.5 63.6-39.7-63.8.1 9.2S-23 20.6-22.9 20.6c.1 0 39.6-63 39.6-63l-.1-9.1z"/></defs><clipPath id="SVGID_68_"><use xlink:href="#SVGID_67_" overflow="visible"/></clipPath><g class="st33"><defs><path id="SVGID_69_" d="M0 0h17v21H0z"/></defs><clipPath id="SVGID_70_"><use xlink:href="#SVGID_69_" overflow="visible"/></clipPath><path class="st34" d="M-67.6-56.7h89.3v82.3h-89.3z"/></g></g></g></g></g></svg>
